<?xml version="1.0" standalone="no"?>
<!DOCTYPE svg PUBLIC "-//W3C//DTD SVG 20010904//EN"
 "http://www.w3.org/TR/2001/REC-SVG-20010904/DTD/svg10.dtd">
<svg version="1.0" xmlns="http://www.w3.org/2000/svg"
 width="460.000000pt" height="460.000000pt" viewBox="0 0 460.000000 460.000000"
 preserveAspectRatio="xMidYMid meet">

<g transform="translate(0.000000,460.000000) scale(0.100000,-0.100000)"
fill="#000000" stroke="none">
<path d="M3416 4591 c-3 -4 -27 -11 -53 -14 -27 -3 -77 -13 -113 -22 -36 -9
-76 -18 -90 -21 -14 -3 -34 -9 -45 -14 -11 -5 -36 -11 -55 -14 -66 -9 -211
-48 -285 -76 -11 -4 -40 -14 -65 -21 -25 -7 -49 -16 -55 -19 -5 -4 -37 -15
-70 -25 -33 -10 -64 -22 -70 -27 -5 -4 -17 -8 -27 -8 -10 0 -26 -4 -36 -9 -9
-5 -48 -21 -87 -36 -70 -27 -95 -37 -137 -54 -13 -5 -45 -17 -73 -27 -27 -9
-54 -21 -60 -26 -5 -4 -17 -8 -27 -8 -10 0 -18 -4 -18 -10 0 -5 -7 -10 -15
-10 -8 0 -23 -4 -33 -9 -9 -5 -43 -22 -75 -37 -32 -15 -60 -32 -63 -36 -3 -4
-14 -8 -25 -8 -10 0 -19 -4 -19 -10 0 -14 -29 -12 -44 3 -7 6 -25 21 -40 32
-27 20 -44 33 -85 68 -12 9 -23 17 -25 17 -3 0 -39 20 -80 45 -42 25 -83 45
-91 45 -8 0 -15 4 -15 9 0 5 -20 17 -45 28 -25 10 -45 21 -45 26 0 4 -4 7 -10
7 -5 0 -51 20 -101 45 -51 25 -98 45 -106 45 -7 0 -21 4 -31 9 -65 33 -123 49
-198 53 -59 4 -61 3 -61 -20 0 -13 -6 -28 -13 -32 -6 -4 -14 -26 -17 -49 -4
-29 -10 -41 -19 -37 -10 4 -12 -2 -7 -24 3 -19 1 -30 -6 -30 -6 0 -11 -19 -11
-46 0 -37 -3 -45 -15 -40 -15 6 -22 -19 -7 -26 5 -1 6 -55 2 -118 -3 -63 -2
-160 2 -215 5 -55 10 -125 11 -155 2 -30 8 -65 15 -77 7 -12 12 -43 12 -68 0
-25 5 -55 11 -67 9 -16 7 -24 -10 -42 -12 -12 -21 -28 -21 -34 0 -7 -4 -12
-10 -12 -5 0 -10 -7 -10 -15 0 -8 -4 -15 -9 -15 -11 0 -26 -39 -23 -57 2 -7
-2 -13 -8 -13 -5 0 -10 -11 -10 -25 0 -14 -4 -25 -10 -25 -5 0 -10 -8 -10 -17
0 -28 -26 -94 -33 -86 -4 4 -7 -2 -6 -13 4 -36 -1 -65 -9 -60 -5 3 -7 -16 -4
-43 2 -30 0 -51 -7 -55 -6 -4 -11 -17 -11 -30 0 -12 -5 -27 -12 -34 -9 -9 -9
-12 0 -12 8 0 12 -17 12 -45 0 -25 -4 -45 -10 -45 -5 0 -10 -9 -10 -20 0 -11
-5 -20 -11 -20 -5 0 -8 -3 -5 -8 2 -4 -4 -32 -15 -62 -10 -30 -19 -64 -19 -75
0 -12 -5 -26 -12 -33 -7 -7 -11 -32 -9 -57 1 -25 -2 -45 -7 -45 -6 0 -13 -28
-16 -62 -3 -35 -10 -103 -16 -153 -17 -147 -15 -633 3 -662 3 -5 2 -15 -4 -23
-7 -12 -9 -12 -9 -2 0 22 -90 107 -143 136 -55 30 -121 35 -131 10 -3 -8 -10
-12 -16 -9 -6 3 -7 -1 -4 -9 3 -9 2 -16 -2 -16 -10 0 -34 -70 -34 -99 0 -11 5
-23 10 -26 6 -3 10 -17 10 -29 0 -62 128 -216 208 -251 40 -18 60 -49 40 -61
-13 -8 -4 -229 10 -248 4 -6 14 -29 21 -51 17 -52 64 -145 74 -145 4 0 7 -6 7
-14 0 -8 3 -16 8 -18 4 -1 25 -30 47 -63 22 -33 48 -67 57 -76 10 -9 18 -20
18 -24 0 -8 160 -168 198 -197 12 -10 27 -18 32 -18 6 0 10 -4 10 -10 0 -5 7
-10 15 -10 8 0 15 -4 15 -8 0 -5 27 -22 60 -38 33 -16 58 -33 56 -39 -4 -11
-96 -8 -111 5 -5 4 -28 10 -50 14 -22 3 -67 9 -100 14 -226 34 -409 40 -555
17 -89 -13 -52 -17 110 -11 180 7 444 -11 495 -34 11 -5 34 -11 50 -14 94 -16
235 -63 235 -78 0 -5 9 -8 20 -8 11 0 20 -4 20 -10 0 -5 6 -10 13 -10 23 -1
47 -27 53 -58 6 -28 3 -33 -21 -42 -29 -11 -129 4 -149 22 -6 4 -22 8 -37 8
-15 0 -30 4 -33 9 -3 5 -23 11 -43 14 -21 3 -72 13 -113 22 -62 13 -259 37
-295 35 -96 -4 -195 -14 -195 -21 0 -5 -15 -9 -32 -9 -18 -1 -51 -7 -73 -15
-22 -8 -48 -15 -57 -15 -10 0 -18 -4 -18 -10 0 -5 -11 -10 -25 -10 -15 0 -40
-7 -57 -16 -25 -13 -36 -14 -50 -5 -15 9 -18 8 -18 -6 0 -19 75 -61 87 -50 3
4 1 7 -5 7 -7 0 -12 6 -12 13 0 16 86 57 118 57 12 0 22 5 22 10 0 6 11 10 25
10 14 0 25 4 25 9 0 23 321 38 429 21 42 -7 80 -14 85 -17 4 -3 -41 -30 -100
-59 -104 -51 -107 -53 -69 -53 24 0 63 11 100 29 33 17 65 30 72 30 7 0 13 4
13 9 0 7 15 8 55 2 6 -1 4 -5 -4 -10 -8 -5 -9 -11 -3 -15 5 -3 17 3 27 14 18
19 46 26 58 14 10 -11 -17 -31 -35 -26 -24 6 -23 -15 1 -28 30 -15 40 -12 33
12 -3 14 -2 19 6 14 7 -4 12 -2 12 3 0 6 17 11 38 11 26 0 33 -3 22 -9 -8 -6
-18 -7 -22 -5 -4 3 -8 0 -8 -6 0 -15 33 -26 38 -12 2 7 13 12 24 12 20 0 21
-1 3 -20 -18 -20 -17 -20 8 -20 15 0 27 5 27 10 0 6 12 10 28 9 24 0 25 -1 7
-9 -26 -10 72 -6 100 5 30 12 55 36 55 54 0 33 14 41 53 30 20 -5 37 -14 37
-19 0 -5 8 -7 17 -4 11 4 8 -3 -9 -18 -30 -25 -37 -48 -15 -48 20 0 58 30 52
41 -11 17 41 9 61 -9 38 -35 112 -42 473 -42 245 0 350 3 358 11 7 7 20 12 30
13 10 2 30 6 45 10 21 6 32 3 49 -13 18 -17 35 -21 83 -20 34 1 53 3 44 6 -10
2 -18 11 -18 19 0 8 -5 14 -11 14 -5 0 -7 6 -4 12 4 7 -1 4 -9 -6 -15 -18 -21
-15 -17 7 1 5 -4 7 -11 5 -7 -3 -12 -16 -11 -29 2 -14 0 -18 -4 -9 -3 8 -13
20 -21 26 -18 13 -8 21 48 41 49 18 78 16 83 -4 4 -16 5 -16 6 -1 0 9 -6 23
-14 31 -12 13 -12 16 0 20 7 3 16 1 19 -6 2 -7 5 -5 5 4 1 12 16 19 54 25 39
6 45 9 25 12 -29 4 -39 22 -12 22 9 0 12 5 8 12 -4 7 -3 8 5 4 6 -4 18 -2 26
4 11 9 25 9 60 -3 26 -9 60 -13 80 -10 27 4 35 2 35 -10 0 -9 -10 -19 -22 -23
l-23 -7 23 -8 c12 -5 22 -13 22 -19 0 -5 10 -10 22 -10 l22 0 -21 22 -22 21
34 44 c18 24 37 44 42 44 4 0 12 7 16 15 4 8 17 14 27 14 16 0 20 -7 21 -32 1
-22 3 -26 6 -13 3 11 9 23 15 26 7 5 -66 89 -78 89 -2 0 -6 -16 -10 -35 -5
-28 -11 -35 -30 -35 -13 0 -24 -4 -24 -8 0 -15 -48 -7 -68 12 -17 15 -19 22
-9 36 6 10 15 17 19 14 4 -3 16 0 25 6 17 11 17 11 1 6 -12 -3 -18 0 -18 9 0
9 6 12 17 8 12 -5 14 -3 8 8 -7 11 -5 11 10 -1 17 -14 17 -13 10 8 -6 20 -4
23 12 20 10 -2 27 4 37 14 16 15 17 22 9 50 l-11 33 -2 -27 c-4 -46 -5 -48
-15 -45 -5 1 -9 9 -7 17 5 22 3 182 -2 205 -2 11 -9 32 -14 46 -8 20 -7 30 5
41 12 13 12 16 0 21 -7 3 -20 1 -28 -4 -11 -7 -10 -9 6 -9 18 0 17 -1 -4 -17
-23 -16 -25 -15 -63 25 -21 23 -46 42 -56 42 -9 0 -23 4 -31 9 -12 8 -12 12
-2 25 8 10 9 16 3 16 -6 0 -14 -4 -17 -10 -3 -5 -14 -10 -23 -10 -16 1 -16 2
0 14 15 11 16 15 3 32 -9 12 -14 14 -15 6 0 -9 -15 -12 -50 -11 -37 2 -49 6
-46 16 3 7 0 13 -5 13 -6 0 -9 9 -6 20 3 11 1 18 -4 14 -5 -3 -9 -12 -9 -20 0
-8 -4 -14 -10 -14 -5 0 -10 -7 -10 -15 0 -8 -4 -15 -10 -15 -5 0 -10 2 -10 5
0 13 30 62 45 75 12 10 13 15 4 21 -9 5 -8 12 5 25 17 17 19 17 37 -7 11 -15
14 -28 8 -34 -12 -12 -12 -35 0 -35 5 0 13 10 17 23 4 12 16 30 27 39 18 16
18 18 2 24 -9 4 -12 10 -7 13 5 3 19 23 30 44 12 23 23 34 27 27 5 -8 10 -8
20 0 10 8 19 8 34 1 23 -13 31 -14 31 -3 0 4 -12 13 -27 19 -22 11 -28 10 -40
-5 -12 -16 -13 -16 -7 1 8 21 -12 23 -32 2 -9 -8 -12 -15 -8 -15 4 0 -7 -14
-25 -30 -17 -17 -31 -35 -31 -40 0 -6 -7 -10 -15 -10 -24 0 -18 15 20 47 19
17 35 35 35 41 0 6 13 25 30 43 16 18 27 36 24 40 -2 4 0 10 6 14 5 3 10 15
10 26 0 11 7 19 16 19 8 0 12 5 9 10 -3 5 1 10 9 10 20 0 21 -19 1 -26 -23 -9
-18 -24 9 -24 30 0 43 -17 19 -23 -10 -3 -5 -5 12 -4 28 2 30 0 27 -28 -2 -21
3 -37 17 -49 28 -25 51 -14 51 24 0 17 -4 29 -9 26 -4 -3 -17 4 -27 15 -10 12
-32 28 -48 36 -18 10 -25 18 -17 22 8 5 5 13 -8 28 -17 18 -18 23 -6 39 8 11
15 31 15 47 0 15 4 27 9 27 13 0 20 -25 14 -48 -2 -11 0 -23 6 -26 6 -4 13 4
17 19 3 14 10 25 14 25 4 0 11 11 14 25 4 14 11 23 16 20 13 -8 13 1 -2 24
-17 27 5 51 48 51 28 0 34 4 34 21 0 27 -19 44 -52 46 -20 0 -28 -4 -29 -16
-1 -9 -2 -20 -3 -26 -1 -5 -6 -29 -11 -53 -5 -29 -11 -40 -18 -33 -13 13 1 84
15 75 7 -5 9 -2 6 7 -20 49 -21 52 -11 46 7 -4 13 17 18 61 4 37 13 74 20 82
21 25 24 58 25 260 2 267 0 312 -11 280 -5 -17 -7 6 -6 68 2 72 -1 91 -11 87
-7 -3 -10 -1 -7 4 3 5 1 12 -4 15 -5 3 -8 22 -7 42 1 25 -5 43 -22 61 -15 17
-21 31 -16 45 3 12 2 18 -3 15 -12 -7 -38 23 -38 43 0 9 11 16 28 18 16 2 31
10 34 18 6 16 39 19 48 3 4 -6 -3 -13 -14 -16 -16 -4 -20 -11 -15 -27 6 -21 6
-21 -10 -1 -13 17 -15 18 -16 3 0 -9 4 -19 9 -22 5 -3 7 -14 5 -24 -3 -9 4
-35 15 -57 l20 -40 1 33 c0 18 -4 42 -10 52 -7 13 -5 24 10 43 11 14 20 32 20
40 0 9 3 17 8 20 4 2 1 2 -5 1 -8 -2 -13 6 -13 19 0 18 2 19 10 7 8 -12 10
-12 10 -1 0 10 3 11 14 2 14 -12 46 -5 46 10 0 5 16 17 35 26 42 20 46 36 8
27 -40 -10 -64 -24 -58 -33 2 -5 -2 -14 -9 -20 -12 -10 -15 -6 -21 19 -4 17
-9 29 -12 26 -3 -2 -16 -1 -29 4 -13 5 -23 6 -23 2 1 -4 1 -16 0 -27 -2 -20
-2 -20 -17 0 -12 17 -16 18 -24 5 -8 -12 -11 -12 -27 2 -17 16 -19 15 -29 -7
-10 -20 -9 -23 5 -18 13 4 13 2 -2 -10 -13 -11 -15 -16 -5 -20 7 -2 9 -8 5
-13 -5 -5 -17 2 -28 16 -10 14 -29 36 -42 50 -26 29 -57 76 -57 87 0 4 7 -3
16 -15 8 -12 22 -22 30 -22 8 0 13 -3 13 -7 -3 -19 2 -33 12 -33 5 0 7 5 4 10
-4 6 4 20 17 31 18 16 19 19 5 15 -23 -7 -67 3 -67 15 0 13 28 11 32 -2 3 -8
15 -7 41 6 20 9 44 15 52 11 11 -4 22 5 36 29 12 19 25 35 30 35 16 0 24 -5
21 -13 -1 -5 2 -6 7 -3 5 3 23 1 41 -6 25 -8 38 -8 51 1 11 6 19 7 19 2 0 -5
-6 -12 -12 -15 -10 -5 -10 -7 0 -12 6 -3 12 -12 12 -21 0 -8 6 -21 14 -28 12
-12 15 -12 20 2 4 9 3 19 -1 22 -4 3 -10 17 -11 31 -2 14 -10 32 -17 40 -8 8
-13 20 -12 25 0 6 -10 12 -24 15 -42 9 -68 34 -69 66 0 63 -2 74 -11 74 -5 0
-9 -7 -9 -16 0 -8 -4 -13 -9 -9 -6 3 -5 -10 1 -31 7 -25 6 -40 -1 -47 -8 -8
-11 -5 -11 11 0 26 -6 27 -26 8 -9 -9 -14 -36 -14 -75 0 -56 -11 -84 -24 -62
-4 5 -2 12 4 16 5 3 10 21 9 38 0 18 -3 27 -5 21 -3 -7 -14 -10 -24 -7 -17 5
-20 0 -21 -28 -1 -19 -1 -38 0 -42 1 -4 -7 -3 -18 3 -24 12 -41 13 -41 1 0 -5
10 -11 23 -14 20 -3 20 -4 3 -12 -11 -5 -21 -4 -25 4 -5 7 -23 10 -49 6 -28
-3 -45 0 -56 10 -8 8 -23 15 -34 15 -15 0 -19 5 -15 20 3 12 0 20 -6 20 -7 0
-9 4 -6 10 3 5 1 18 -4 27 -9 16 -11 15 -11 -7 -1 -23 -2 -23 -10 -5 -8 19 -9
19 -9 -2 -1 -13 -6 -23 -12 -23 -6 0 -8 10 -5 23 3 12 3 16 0 10 -9 -21 -54
15 -54 43 0 13 5 24 10 24 6 0 10 -7 10 -15 0 -17 36 -38 53 -31 7 2 4 5 -7 5
-15 1 -16 4 -6 16 7 8 20 15 30 15 23 0 45 -26 30 -35 -5 -3 -10 -11 -10 -16
0 -6 7 -3 16 6 9 9 24 13 35 10 10 -4 19 -4 19 -2 0 12 -48 56 -67 62 -13 3
-23 11 -23 16 0 5 -9 9 -20 9 -21 0 -29 -20 -7 -20 7 0 6 -4 -4 -10 -9 -5 -33
-5 -60 1 -59 14 -73 29 -26 29 22 0 37 -5 37 -12 0 -6 2 -9 5 -7 2 3 2 15 -2
27 -5 22 -37 30 -47 13 -3 -5 -15 -7 -27 -4 -12 3 -24 1 -28 -4 -3 -5 -15 -15
-26 -21 -17 -10 -14 -11 23 -12 23 0 42 -4 42 -10 0 -5 -19 -10 -42 -11 -32 0
-38 -2 -23 -8 11 -5 33 -4 50 0 42 12 48 11 41 -7 -4 -10 1 -22 11 -29 10 -8
14 -17 9 -22 -5 -4 -11 -2 -13 5 -3 6 -13 12 -24 12 -10 0 -19 4 -19 9 0 4
-39 9 -87 10 -48 1 -89 4 -92 6 -2 3 9 9 25 15 21 9 34 9 47 0 11 -6 22 -9 25
-6 3 3 0 6 -6 6 -7 0 -12 7 -12 15 0 8 -9 15 -19 15 -11 0 -25 2 -33 3 -7 2
-10 2 -5 0 17 -10 5 -23 -22 -23 -17 0 -33 -4 -36 -10 -3 -5 1 -10 9 -10 9 0
16 -7 16 -15 0 -12 -14 -15 -65 -15 -39 0 -65 -4 -65 -11 0 -5 -4 -7 -10 -4
-5 3 -10 2 -10 -3 0 -5 -11 -12 -25 -14 -13 -3 -22 -1 -19 3 11 19 -12 7 -35
-16 -14 -16 -34 -25 -53 -25 -19 0 -27 -4 -22 -11 4 -8 -1 -9 -17 -3 -13 4
-32 7 -41 6 -9 0 -24 10 -33 24 -14 22 -14 26 0 40 18 19 102 33 91 16 -12
-20 34 -25 50 -5 10 13 14 14 12 3 -2 -8 -7 -18 -13 -22 -6 -4 -2 -8 8 -8 9 0
17 4 17 8 0 5 6 9 13 10 58 8 88 16 93 23 3 5 18 9 34 9 16 0 35 7 42 16 7 8
21 24 30 35 17 18 17 19 -18 19 -56 0 -124 -20 -124 -37 0 -11 8 -14 30 -11
37 6 39 -4 4 -22 -21 -12 -27 -12 -34 -1 -6 10 -20 12 -51 7 -24 -4 -50 -8
-56 -8 -7 -1 -13 -8 -13 -17 0 -14 -1 -14 -10 -1 -5 8 -7 23 -4 33 5 14 -1 17
-40 17 -39 0 -46 3 -46 20 0 23 -25 27 -46 6 -20 -21 -18 -26 12 -26 21 0 64
-27 53 -33 -2 -1 -14 -8 -27 -15 -18 -10 -27 -10 -38 -1 -11 9 -14 8 -14 -4 0
-12 -8 -14 -40 -10 -29 4 -40 2 -40 -7 0 -7 3 -11 6 -7 9 9 66 -14 97 -40 16
-12 34 -23 41 -23 7 0 13 -7 13 -16 0 -16 -20 -16 -59 1 -11 4 -18 3 -18 -3 0
-6 10 -14 21 -17 16 -6 18 -9 8 -15 -7 -5 -17 -6 -21 -4 -4 3 -8 1 -8 -5 0 -6
-7 -8 -15 -5 -11 5 -13 2 -9 -10 3 -9 1 -16 -6 -16 -6 0 -8 5 -4 11 4 7 0 9
-14 5 -13 -4 -24 -2 -29 7 -7 12 -11 11 -27 -4 -11 -11 -14 -19 -8 -19 7 0 12
-4 12 -10 0 -14 -28 -12 -33 3 -3 9 -8 8 -22 -3 -10 -8 -20 -14 -22 -12 -1 1
-6 2 -10 2 -5 0 5 -11 21 -23 31 -25 29 -47 -4 -47 -10 0 -22 -9 -25 -20 -3
-11 -13 -20 -21 -20 -8 0 -14 -9 -14 -20 0 -15 -7 -20 -26 -20 -17 0 -23 -4
-18 -13 4 -6 -3 -2 -16 9 -25 24 -20 44 11 44 11 0 17 -4 14 -10 -3 -5 -2 -10
4 -10 6 0 15 9 21 21 11 20 9 20 -42 18 -41 -2 -53 0 -53 11 0 8 9 16 20 18
30 6 43 22 17 22 -12 0 -22 5 -22 11 0 5 -4 7 -10 4 -5 -3 -10 -15 -10 -25 0
-10 -6 -21 -12 -24 -10 -5 -10 -7 0 -12 17 -8 15 -22 -5 -27 -10 -2 -8 -3 5
-2 24 2 41 -13 25 -24 -15 -10 -21 -46 -11 -65 7 -13 5 -23 -8 -37 -9 -10 -21
-19 -26 -19 -14 0 -9 22 10 36 13 10 14 15 5 25 -10 10 -17 8 -35 -11 -24 -25
-30 -56 -18 -80 10 -17 -18 -70 -37 -70 -11 0 -35 -32 -30 -41 1 -2 -4 2 -11
11 -10 12 -16 12 -32 2 -17 -11 -20 -10 -20 7 0 17 5 19 37 14 20 -4 34 -2 31
3 -3 5 -2 18 3 29 7 19 8 19 8 1 1 -18 2 -18 25 3 21 20 23 26 13 42 -7 11
-17 17 -24 15 -20 -8 -26 14 -9 33 19 20 20 31 5 31 -5 0 -15 -13 -20 -29 -6
-16 -19 -31 -30 -34 -14 -4 -19 -14 -19 -40 0 -37 -26 -59 -42 -35 -5 8 -8 0
-8 -22 0 -20 -5 -41 -12 -48 -9 -9 -9 -12 0 -12 7 0 12 -13 12 -28 0 -15 6
-34 13 -41 10 -10 9 -15 -4 -24 -9 -7 -18 -19 -21 -27 -7 -20 -18 72 -22 187
-2 62 0 93 8 96 8 3 7 9 -3 20 -9 12 -14 58 -17 154 -3 102 -1 132 6 114 6
-14 10 -32 9 -40 -3 -29 1 -42 10 -36 5 3 19 -7 30 -21 l21 -27 1 39 c2 49 -1
68 -11 74 -4 3 -10 12 -13 20 -3 8 -6 -2 -6 -22 -1 -20 -6 -40 -12 -44 -8 -5
-10 6 -7 34 3 35 0 42 -18 46 -20 5 -23 15 -29 81 -4 41 -11 78 -16 81 -5 3
-9 32 -9 65 0 37 4 58 10 54 6 -3 7 1 4 9 -3 9 -12 16 -20 16 -9 0 -14 11 -14
30 0 17 5 30 10 30 6 0 10 14 10 30 0 17 4 30 9 30 9 0 5 -75 -5 -91 -2 -4 2
-12 10 -18 11 -9 15 -9 19 1 4 10 8 10 16 -2 8 -11 7 -18 -4 -26 -9 -7 -13
-18 -9 -28 5 -14 10 -12 25 13 10 17 22 31 26 30 39 -6 45 24 11 53 -19 16
-20 22 -10 38 7 11 12 43 12 71 0 45 -2 50 -15 39 -11 -9 -13 -16 -5 -24 13
-13 13 -76 1 -76 -5 0 -12 10 -14 23 -2 12 -5 3 -6 -20 0 -25 4 -43 12 -46 6
-2 9 -7 6 -11 -16 -18 -38 9 -44 55 -6 44 -9 48 -26 39 -16 -9 -19 -7 -19 14
0 19 4 24 16 19 14 -5 15 -3 5 15 -6 11 -11 30 -11 41 0 11 -5 23 -11 26 -6 4
-9 0 -7 -10 4 -23 -16 -30 -33 -12 -8 8 -23 12 -34 10 -17 -4 -18 -3 -5 7 13
10 12 11 -3 6 -10 -3 -21 -6 -23 -6 -2 0 -4 -4 -4 -10 0 -5 13 -10 29 -10 16
0 31 -6 35 -15 3 -8 12 -15 21 -15 8 0 15 -8 15 -18 0 -10 -7 -19 -15 -19 -8
0 -15 4 -15 9 0 17 -28 38 -49 38 -12 0 -21 4 -21 9 0 5 -7 12 -16 15 -8 3
-12 2 -9 -4 4 -6 -7 -18 -24 -28 -17 -9 -31 -20 -31 -24 0 -5 -5 -8 -10 -8 -6
0 -10 7 -8 16 5 30 -44 24 -73 -7 -36 -39 -69 -39 -69 -1 0 16 8 34 20 42 11
8 20 25 20 37 0 13 5 23 11 23 5 0 8 4 5 8 -3 5 6 21 20 38 14 16 22 23 18 15
-5 -9 -3 -12 4 -7 7 4 12 16 12 27 0 10 7 19 15 19 8 0 15 6 15 13 0 6 11 25
24 40 24 27 44 32 58 12 5 -6 8 -3 8 7 0 14 8 17 43 16 47 -2 190 40 181 53
-3 5 2 6 12 2 14 -5 13 -8 -6 -18 -17 -9 -19 -14 -9 -18 9 -3 6 -6 -7 -6 -12
-1 -31 -10 -43 -20 -19 -16 -27 -18 -47 -9 -13 6 -27 8 -30 5 -11 -10 17 -37
37 -37 11 0 19 -4 19 -8 0 -13 49 -17 92 -6 22 5 28 3 28 -10 0 -9 8 -16 20
-16 11 0 20 7 20 15 0 8 -7 15 -15 15 -7 0 -18 7 -23 17 -7 11 -15 14 -28 8
-31 -12 -94 -16 -94 -5 0 6 9 10 19 10 11 0 21 5 23 11 3 9 21 15 51 18 4 1 7
8 7 16 0 8 9 19 21 25 12 7 18 18 15 26 -3 8 1 14 9 14 8 0 15 5 15 10 0 6 3
9 8 9 42 -7 58 27 27 58 -22 22 -11 28 17 9 12 -9 23 -26 23 -38 0 -16 6 -23
19 -23 22 0 58 -57 50 -79 -3 -8 0 -17 7 -22 8 -4 10 -3 5 4 -4 7 -2 12 5 12
15 0 4 58 -16 80 -12 13 -12 19 -2 29 10 11 8 11 -11 2 -29 -15 -40 -8 -37 23
2 14 -5 32 -16 42 -17 15 -22 16 -44 4 -22 -12 -27 -11 -40 6 -8 10 -13 27
-11 37 2 9 0 17 -5 17 -5 0 -9 8 -8 18 0 10 3 12 6 4 2 -6 9 -10 14 -7 5 3 3
14 -3 25 -9 14 -16 16 -25 8 -10 -8 -13 -6 -13 6 0 9 4 16 9 16 18 0 22 37 7
64 l-14 27 -11 -32 c-13 -39 -14 -49 -1 -29 5 8 12 11 16 8 3 -4 0 -13 -8 -21
-10 -10 -16 -11 -24 -3 -11 12 -29 65 -26 78 1 4 -5 5 -13 2 -9 -4 -16 3 -21
20 -3 14 -10 26 -14 26 -4 0 -8 12 -8 28 -1 46 -5 62 -14 62 -4 0 -8 -7 -8
-15 0 -25 -13 -17 -40 23 -33 49 -34 53 -16 46 21 -8 21 15 -1 31 -9 7 -18 23
-20 36 -4 27 -19 46 -29 36 -4 -4 -1 -13 6 -21 6 -9 10 -21 7 -28 -4 -8 -6 -7
-6 5 -1 9 -8 17 -16 17 -8 0 -15 6 -15 13 0 7 -10 21 -22 32 -15 12 -18 20
-10 23 7 2 12 10 12 18 0 8 5 14 10 14 6 0 10 10 10 23 0 19 -5 22 -41 23
l-41 1 28 -23 c28 -22 28 -23 5 -17 -20 5 -23 3 -18 -10 4 -11 2 -14 -9 -10
-7 3 -14 10 -14 17 0 23 -20 -20 -20 -45 0 -16 -6 -26 -15 -26 -10 0 -15 10
-15 29 0 15 5 28 10 28 6 0 10 12 10 26 0 17 4 24 13 21 8 -3 12 7 12 32 0 34
2 36 35 38 30 2 32 1 13 -7 -39 -16 -27 -35 22 -38 25 -1 54 -6 65 -12 21 -11
28 -40 10 -40 -5 0 -10 5 -10 12 0 9 -3 9 -12 0 -9 -9 -9 -15 -1 -23 12 -12 6
-49 -8 -49 -15 0 -21 22 -8 31 7 4 10 11 6 15 -4 4 -14 -1 -22 -12 -17 -22
-19 -38 -5 -29 6 4 10 3 9 -2 -3 -19 2 -23 21 -13 11 6 20 15 20 21 0 23 35
46 60 38 14 -4 19 -7 12 -8 -10 -1 -10 -4 2 -16 21 -21 47 -20 39 3 -6 15 -5
16 13 2 10 -8 22 -19 25 -24 4 -5 12 -5 19 -1 9 6 6 13 -11 26 -28 21 -24 27
22 34 19 3 28 3 21 -1 -6 -3 -10 -10 -7 -15 4 -5 -1 -6 -9 -3 -9 3 -16 1 -16
-5 0 -15 37 -14 42 1 5 13 38 20 38 8 0 -4 20 -14 44 -21 25 -7 43 -16 40 -20
-2 -4 2 -10 8 -13 7 -3 2 -3 -12 1 -14 4 -33 7 -42 7 -9 0 -14 5 -11 10 4 5
-1 7 -10 3 -10 -4 -17 -1 -17 6 0 9 -2 9 -8 0 -4 -7 -16 -10 -27 -9 -21 4 -45
-10 -45 -25 0 -5 22 -9 50 -9 36 0 52 -5 59 -17 9 -16 12 -16 51 5 50 26 57
27 39 6 -11 -14 -8 -15 27 -10 21 3 31 3 22 0 -27 -8 -22 -17 27 -46 45 -28
57 -29 31 -2 -8 8 -22 14 -30 14 -9 0 -16 5 -16 10 0 6 9 10 20 10 11 0 20 -4
20 -10 0 -5 7 -10 15 -10 8 0 15 -4 15 -10 0 -5 7 -10 15 -10 8 0 15 -6 15
-12 1 -18 29 -53 36 -45 4 4 1 13 -6 22 -11 13 -10 14 3 9 8 -3 18 -12 21 -20
3 -9 11 -12 17 -8 8 4 9 3 5 -4 -4 -7 -1 -12 8 -12 10 0 13 -6 10 -15 -4 -8
-12 -15 -20 -15 -8 0 -14 -4 -14 -10 0 -5 -8 -10 -17 -10 -12 0 -14 -3 -6 -11
8 -8 17 -8 31 0 26 14 62 14 62 1 0 -5 -16 -10 -35 -10 -25 0 -35 -4 -35 -16
0 -12 -6 -15 -25 -10 -14 4 -25 2 -25 -4 0 -5 14 -10 30 -10 17 0 30 5 30 10
0 6 15 10 34 10 29 0 36 -5 45 -30 8 -24 7 -30 -5 -31 -7 -1 -18 -3 -24 -4 -5
-1 -13 -3 -16 -4 -6 -1 22 -31 30 -31 2 0 7 6 9 13 2 6 3 -1 1 -16 -4 -32 10
-50 44 -59 16 -4 25 -1 32 12 14 26 13 32 -7 28 -10 -1 -18 2 -18 7 0 6 8 10
18 9 9 0 17 4 17 9 0 19 34 36 52 26 19 -10 23 -2 10 16 -8 12 -22 13 -39 2
-8 -5 -13 -4 -13 3 0 6 8 13 18 17 9 3 25 13 35 21 16 15 18 14 23 -5 6 -20 6
-21 24 -3 10 10 21 26 24 37 8 25 49 43 71 30 11 -6 25 -6 39 1 11 6 28 13 36
16 8 4 -5 4 -30 2 l-45 -4 35 15 c75 33 85 38 90 43 5 5 23 12 120 48 25 9 48
22 52 27 5 6 8 5 8 -4 0 -9 4 -10 13 -4 19 15 58 23 50 10 -4 -6 2 -8 18 -4
13 4 39 7 58 7 l33 0 -23 20 c-13 10 -18 19 -11 20 6 0 12 -4 12 -9 0 -14 62
-10 83 4 10 7 34 11 55 8 34 -5 35 -4 22 13 -14 16 -13 17 14 12 16 -3 42 -2
57 2 16 5 31 5 34 1 2 -5 16 -8 30 -8 13 0 22 3 19 8 -10 17 16 9 36 -11 16
-16 20 -17 20 -4 0 11 6 14 20 9 11 -3 20 -2 20 3 0 5 -17 13 -37 17 -21 4
-44 12 -52 18 -11 9 -15 9 -18 0 -6 -16 -35 -17 -50 -2 -6 6 -25 8 -49 3 l-39
-8 35 -7 35 -6 -35 -2 c-19 -1 -64 -10 -100 -21 -74 -23 -84 -24 -75 -10 4 6
11 8 16 5 5 -4 9 -1 9 5 0 6 4 9 9 5 5 -3 17 2 25 11 9 9 16 11 16 4 0 -7 6
-5 16 4 8 9 27 18 42 21 15 3 41 10 57 16 67 24 85 27 85 18 0 -5 9 -9 20 -9
11 0 20 -4 20 -10 0 -5 10 -10 23 -10 13 0 29 -6 36 -12 10 -10 10 -8 0 10 -8
12 -20 20 -27 17 -8 -3 -25 4 -39 15 -25 19 -25 20 -4 20 11 0 21 -4 21 -9 0
-11 44 0 79 18 11 7 21 8 21 3 0 -4 21 -5 47 -2 52 6 73 30 26 30 -25 1 -26 2
-11 13 9 7 46 19 82 27 36 7 66 17 66 22 0 11 64 10 76 -2 9 -9 39 -6 154 16
14 3 47 8 73 11 32 4 44 9 35 14 -18 12 -78 11 -78 -1 0 -5 -19 -10 -43 -10
-24 0 -47 -4 -52 -9 -16 -13 -70 -21 -85 -11 -18 11 -5 16 60 24 58 7 96 13
142 24 25 7 40 6 49 -2 9 -8 11 -7 6 5 -4 13 5 17 55 23 68 7 71 6 62 -17 -5
-13 -17 -16 -57 -13 -29 2 -42 2 -29 -1 27 -5 30 -33 3 -33 -28 0 -35 -17 -9
-23 21 -6 21 -7 4 -26 -10 -11 -24 -17 -31 -15 -7 3 -22 1 -33 -5 -28 -15 -37
0 -10 16 l23 13 -25 -3 c-31 -3 -40 -14 -40 -52 0 -23 3 -27 10 -15 8 12 10 9
10 -12 0 -22 5 -28 21 -28 12 0 33 12 47 28 13 15 21 20 16 12 -7 -13 -5 -13
9 -1 9 7 15 17 12 21 -3 5 5 6 17 3 17 -3 19 -2 10 5 -11 7 -8 11 10 17 31 10
62 6 104 -11 20 -8 45 -12 57 -9 15 4 18 3 9 -3 -8 -6 5 -9 38 -9 27 -1 50 2
50 7 0 4 -14 6 -30 5 -40 -3 -48 11 -10 19 31 6 38 24 18 44 -7 7 -17 8 -29 2
-12 -7 -20 -6 -24 1 -4 6 -22 8 -45 4 -31 -5 -39 -3 -42 10 -3 14 -5 15 -23 1
-20 -16 -20 -16 3 -22 20 -6 28 -27 9 -25 -4 1 -14 1 -22 1 -8 0 -15 8 -15 18
0 14 -2 15 -10 2 -9 -13 -10 -13 -10 0 -1 12 -3 11 -11 -2 -11 -19 -39 -25
-39 -8 0 6 7 13 15 16 8 4 13 10 10 15 -7 10 74 51 86 43 5 -3 9 2 9 10 0 9
-5 16 -11 16 -6 0 -9 9 -6 20 5 19 0 20 -78 20 -46 0 -86 -4 -89 -9z m-2381
-181 c3 -5 17 -10 30 -10 28 0 45 -20 18 -20 -11 -1 -6 -6 13 -14 40 -18 52
-36 25 -36 -12 0 -21 5 -21 10 0 6 -3 9 -7 9 -25 -4 -53 3 -48 11 3 6 -1 13
-10 16 -13 6 -14 8 -3 15 8 6 0 9 -24 9 -21 0 -38 5 -38 10 0 6 13 10 29 10
17 0 33 -4 36 -10z m1884 6 c-10 -8 -89 -13 -89 -5 0 5 21 9 47 9 25 0 44 -2
42 -4z m-114 -26 c3 -5 -1 -10 -9 -10 -9 0 -16 5 -16 10 0 6 4 10 9 10 6 0 13
-4 16 -10z m-1630 -30 c3 -5 1 -10 -4 -10 -6 0 -11 5 -11 10 0 6 2 10 4 10 3
0 8 -4 11 -10z m-234 -140 c19 -27 37 -50 42 -50 4 0 7 -9 7 -19 0 -11 4 -21
8 -23 11 -4 82 -115 82 -127 0 -5 3 -11 8 -13 11 -5 62 -83 62 -96 0 -7 4 -12
8 -12 5 0 17 -17 28 -37 46 -86 76 -139 85 -147 14 -16 10 -46 -6 -46 -8 0
-23 -4 -33 -9 -9 -5 -32 -16 -49 -23 -18 -7 -33 -16 -33 -20 0 -5 -9 -8 -19
-8 -11 0 -22 -4 -25 -9 -5 -8 -96 -22 -166 -25 -35 -1 -35 0 -43 49 -22 140
-31 254 -31 390 1 194 12 270 40 275 0 0 16 -22 35 -50z m379 30 c0 -5 -7 -10
-15 -10 -8 0 -15 5 -15 10 0 6 7 10 15 10 8 0 15 -4 15 -10z m1080 0 c0 -5 -5
-10 -11 -10 -5 0 -7 5 -4 10 3 6 8 10 11 10 2 0 4 -4 4 -10z m-1560 -61 c0
-22 -4 -38 -9 -35 -4 3 -7 -64 -6 -149 1 -85 -2 -152 -6 -149 -4 2 -5 -5 -2
-16 3 -11 0 -20 -6 -20 -8 0 -11 44 -11 140 0 77 4 140 9 140 5 0 7 18 4 39
-6 45 3 91 17 91 6 0 10 -18 10 -41z m840 -114 c16 -19 0 -19 -26 0 -16 12
-16 14 -3 15 9 0 22 -7 29 -15z m-560 -46 c0 -6 -4 -7 -10 -4 -5 3 -10 11 -10
16 0 6 5 7 10 4 6 -3 10 -11 10 -16z m639 -13 c18 -19 22 -29 14 -37 -8 -8
-18 -1 -38 28 -23 34 -25 35 -19 11 8 -36 -13 -38 -26 -2 -13 33 -14 32 17 28
14 -1 38 -14 52 -28z m-3 -57 c5 -8 0 -11 -28 -13 -6 -1 -12 6 -13 15 -2 12 3
15 16 12 11 -3 22 -9 25 -14z m-916 -204 c0 -51 -3 -65 -15 -65 -11 0 -15 11
-15 40 0 34 17 90 27 90 1 0 3 -29 3 -65z m18 -107 c-1 -18 -6 -36 -11 -39
-10 -8 2 -61 13 -54 5 3 11 1 15 -5 3 -6 -4 -10 -17 -11 -13 0 -17 -3 -10 -6
13 -5 7 -23 -9 -23 -10 0 -13 153 -2 163 15 15 23 5 21 -25z m152 -411 c19
-15 39 -88 52 -192 5 -44 14 -111 19 -150 12 -83 24 -239 38 -505 10 -187 21
-273 35 -288 9 -8 85 68 86 86 0 6 5 12 10 12 6 0 10 5 10 11 0 12 64 104 90
129 8 8 32 36 53 62 43 54 150 159 187 185 14 9 32 24 40 33 22 24 146 110
158 110 6 0 12 3 14 8 4 9 110 62 125 62 6 0 13 3 15 8 4 9 162 62 187 62 11
0 23 5 26 10 3 6 51 10 107 10 83 0 115 -5 177 -26 42 -14 83 -35 92 -45 9
-10 21 -19 27 -19 18 0 162 -144 162 -162 0 -10 4 -18 9 -18 8 0 72 -123 91
-175 56 -153 74 -336 59 -585 -4 -74 -15 -171 -23 -215 -9 -44 -19 -99 -22
-123 -4 -23 -11 -45 -15 -48 -5 -3 -9 -14 -9 -25 0 -10 -4 -19 -10 -19 -5 0
-10 -6 -10 -13 0 -8 -6 -27 -14 -43 -7 -16 -20 -44 -27 -62 -8 -17 -17 -32
-21 -32 -5 0 -8 -7 -8 -15 0 -8 -3 -15 -8 -15 -4 0 -13 -15 -21 -32 -13 -30
-49 -83 -76 -114 -5 -7 -19 -25 -30 -40 -31 -44 -145 -152 -200 -190 -27 -19
-48 -34 -45 -34 3 -1 57 -2 120 -4 125 -4 190 -13 190 -27 0 -5 7 -9 15 -9 8
0 15 -3 15 -8 0 -4 13 -13 29 -20 44 -19 108 -88 131 -140 36 -81 20 -208 -31
-253 -10 -9 -19 -20 -19 -25 0 -16 -69 -70 -122 -97 -29 -14 -87 -36 -128 -48
-41 -11 -84 -25 -95 -29 -23 -10 -44 -14 -185 -40 -159 -29 -253 -39 -267 -27
-7 5 -13 18 -13 29 0 26 -64 94 -103 108 -18 7 -42 17 -55 23 -32 15 -215 14
-220 -1 -2 -7 -8 -12 -14 -12 -16 0 -37 -32 -38 -56 0 -13 15 -35 35 -53 l36
-31 -28 0 c-24 1 -88 13 -243 46 -14 3 -34 9 -45 14 -11 5 -42 16 -70 26 -27
9 -54 21 -60 26 -5 4 -19 8 -32 8 -13 0 -23 5 -23 10 0 6 -9 10 -20 10 -11 0
-20 5 -20 10 0 6 -7 10 -15 10 -9 0 -33 11 -55 25 -22 14 -44 25 -50 25 -5 0
-10 5 -10 10 0 6 -7 10 -15 10 -8 0 -15 5 -15 10 0 6 -6 10 -14 10 -20 0 -246
225 -286 285 -19 28 -40 56 -47 63 -7 7 -13 20 -13 28 0 8 -4 14 -10 14 -5 0
-10 7 -10 15 0 9 -8 24 -17 35 -10 10 -26 41 -36 67 -10 26 -23 56 -28 65 -5
10 -9 26 -9 36 0 10 -4 22 -9 28 -9 9 -16 134 -13 222 2 45 15 53 50 31 23
-15 69 13 83 49 10 25 3 89 -11 107 -4 6 -10 28 -14 50 -3 22 -10 69 -16 105
-23 138 -31 349 -20 519 18 277 21 306 31 316 5 5 9 25 9 44 0 19 4 48 9 65
11 38 51 201 58 239 3 15 9 27 14 27 5 0 9 11 9 24 0 14 4 27 9 30 5 3 12 18
15 33 6 27 45 113 56 123 3 3 14 20 24 39 43 78 154 189 196 197 17 4 33 11
36 15 7 12 26 11 44 -4z m-163 -22 c-15 -16 -22 -11 -13 10 3 9 10 13 16 10 6
-4 5 -11 -3 -20z m-43 -26 c2 -2 -2 -10 -10 -17 -9 -8 -14 -9 -14 -2 0 6 -12
10 -27 8 -15 -2 -28 2 -31 10 -3 10 6 12 37 9 22 -2 43 -5 45 -8z m285 -44 c0
-5 -4 -3 -9 5 -5 8 -9 22 -9 30 0 16 17 -16 18 -35z m-374 -41 c-17 -26 -19
-34 -7 -34 14 0 42 58 36 73 -7 18 12 32 21 16 9 -13 -11 -54 -42 -89 -13 -14
-23 -28 -23 -32 0 -5 -5 -8 -10 -8 -12 0 -3 48 12 67 5 6 9 20 8 30 -4 36 1
48 11 24 7 -17 5 -30 -6 -47z m-38 -106 c-3 -8 -6 -5 -6 6 -1 11 2 17 5 13 3
-3 4 -12 1 -19z m1483 -27 c0 -15 -49 -19 -61 -5 -9 11 -5 14 25 14 20 0 36
-4 36 -9z m-150 -51 c0 -5 -8 -10 -17 -10 -15 0 -16 2 -3 10 19 12 20 12 20 0z
m934 -26 c9 -3 16 -11 16 -17 0 -6 -3 -7 -6 -4 -4 3 -16 2 -26 -4 -26 -14 -52
6 -28 21 18 11 23 12 44 4z m-1074 -85 c0 -14 -17 -10 -23 5 -4 10 -1 13 9 9
7 -3 14 -9 14 -14z m-172 -98 c-7 -2 -23 -13 -35 -24 -13 -11 -23 -15 -23 -9
0 6 9 17 21 25 13 10 17 17 10 22 -6 3 -9 11 -5 16 4 6 14 3 26 -8 14 -13 16
-19 6 -22z m-68 -11 c0 -5 -7 -10 -15 -10 -8 0 -15 5 -15 10 0 6 7 10 15 10 8
0 15 -4 15 -10z m1230 -43 c0 -17 -38 -52 -47 -44 -9 10 18 57 34 57 7 0 13
-6 13 -13z m-1401 -115 c7 -13 6 -19 -2 -19 -7 0 -13 9 -13 19 0 10 1 18 3 18
1 0 7 -8 12 -18z m-195 -250 c2 -4 0 -14 -5 -22 -8 -13 -10 -13 -18 0 -10 15
-6 30 9 30 5 0 11 -4 14 -8z m-30 -38 c4 -15 5 -29 1 -32 -3 -3 -5 2 -5 11 0
10 -5 17 -11 17 -5 0 -7 -4 -4 -10 3 -5 1 -10 -4 -10 -12 0 -14 11 -5 34 9 24
21 19 28 -10z m-959 -544 c3 -5 14 -10 25 -10 27 0 126 -104 133 -140 7 -32 0
-61 -17 -72 -18 -13 -71 -9 -110 7 -39 17 -106 81 -106 102 0 7 -5 22 -12 33
-9 15 -9 24 1 43 19 37 72 59 86 37z m2559 -336 c6 -24 2 -43 -8 -33 -11 10
-17 59 -8 59 5 0 13 -12 16 -26z m20 -243 c3 -5 -1 -11 -9 -15 -9 -3 -15 0
-15 9 0 16 16 20 24 6z m-314 -181 c0 -5 -2 -10 -4 -10 -2 0 -12 -3 -22 -7
-16 -6 -17 -5 -4 10 17 19 30 22 30 7z m-61 -66 c-6 -7 -15 -12 -19 -9 -5 3
-11 1 -15 -5 -3 -5 -11 -10 -16 -10 -6 0 -4 7 5 15 8 8 19 15 25 15 6 0 11 5
11 11 0 5 5 7 10 4 8 -5 7 -11 -1 -21z m71 -14 c0 -5 -4 -10 -10 -10 -5 0 -10
5 -10 10 0 6 5 10 10 10 6 0 10 -4 10 -10z m321 -192 c11 -21 11 -22 -4 -9
-10 7 -17 17 -17 22 0 15 9 10 21 -13z m-81 -419 c12 -9 11 -10 -7 -6 -12 3
-27 -1 -34 -9 -9 -11 -6 -16 12 -23 27 -11 15 -14 -18 -5 -27 7 -31 41 -5 47
29 8 36 7 52 -4z m-1620 -65 c0 -2 -7 -4 -15 -4 -8 0 -15 4 -15 10 0 5 7 7 15
4 8 -4 15 -8 15 -10z m90 -60 c0 -9 -5 -14 -12 -12 -18 6 -21 28 -4 28 9 0 16
-7 16 -16z"/>
<path d="M559 2180 c-6 -88 6 -384 17 -432 6 -31 38 -39 48 -12 3 9 6 56 6
106 0 50 5 119 12 155 9 49 9 66 0 75 -9 9 -12 9 -12 0 0 -7 -6 -12 -13 -12
-22 0 -39 49 -46 130 l-7 75 -5 -85z"/>
<path d="M1254 1845 c0 -71 1 -99 3 -62 2 37 2 96 0 130 -2 34 -3 4 -3 -68z"/>
<path d="M1136 1718 c-11 -79 -2 -436 12 -471 10 -24 14 -26 25 -15 8 7 17 27
21 43 17 74 54 418 40 372 -8 -27 -58 -19 -62 11 -2 12 -7 22 -12 22 -5 0 -10
21 -12 48 l-3 47 -9 -57z"/>
<path d="M3600 4581 c0 -24 10 -27 29 -8 11 10 13 10 7 0 -4 -7 -2 -13 4 -13
21 0 5 35 -18 38 -17 3 -22 -2 -22 -17z"/>
<path d="M3752 4530 c0 -19 2 -27 5 -17 2 9 2 25 0 35 -3 9 -5 1 -5 -18z"/>
<path d="M3973 4553 c-33 -4 -33 -5 -33 -59 0 -53 0 -54 30 -54 27 0 30 3 30
30 l0 30 160 0 160 0 0 -26 c0 -21 4 -25 23 -22 16 2 22 10 22 28 0 18 -6 26
-22 28 -13 2 -23 9 -23 17 0 11 -31 14 -142 17 -79 2 -150 6 -158 9 -8 3 -30
4 -47 2z"/>
<path d="M3820 4520 c0 -11 5 -20 10 -20 6 0 10 9 10 20 0 11 -4 20 -10 20 -5
0 -10 -9 -10 -20z"/>
<path d="M3360 4480 c0 -5 7 -10 16 -10 8 0 12 5 9 10 -3 6 -10 10 -16 10 -5
0 -9 -4 -9 -10z"/>
<path d="M3025 4450 c-19 -8 -19 -9 -1 -9 13 -1 16 -5 10 -14 -5 -7 -2 -6 6 3
13 14 18 15 28 4 7 -7 12 -18 12 -24 0 -5 19 -10 42 -10 39 0 40 1 25 18 -10
10 -14 22 -10 25 3 4 -10 7 -30 7 -19 0 -41 2 -49 4 -7 3 -22 1 -33 -4z m92
-16 c-3 -3 -12 -4 -19 -1 -8 3 -5 6 6 6 11 1 17 -2 13 -5z"/>
<path d="M3161 4428 c5 -18 9 -34 9 -35 0 -2 6 -3 14 -3 8 0 13 11 12 33 -1
25 -6 33 -23 35 -20 3 -21 1 -12 -30z"/>
<path d="M4400 4450 c0 -6 7 -10 15 -10 8 0 15 2 15 4 0 2 -7 6 -15 10 -8 3
-15 1 -15 -4z"/>
<path d="M3521 4426 c2 -2 18 -6 34 -10 22 -5 26 -4 15 4 -14 9 -59 15 -49 6z"/>
<path d="M3100 4340 c0 -22 5 -40 10 -40 6 0 10 4 10 9 0 5 9 11 21 14 21 6
21 6 -4 31 -15 14 -29 26 -32 26 -3 0 -5 -18 -5 -40z"/>
<path d="M3737 4374 c-3 -4 -19 -7 -35 -9 -16 -1 -38 -8 -48 -14 -16 -11 -15
-11 11 -5 63 14 95 15 95 5 0 -6 -9 -12 -20 -12 -11 -1 -24 -3 -30 -4 -5 -1
-14 -3 -20 -4 -5 0 -10 -8 -10 -16 0 -11 -7 -14 -25 -11 -13 3 -27 1 -30 -4
-3 -5 3 -7 15 -5 11 2 22 0 25 -6 4 -5 11 -9 16 -9 6 0 7 5 4 10 -3 6 4 10 17
10 13 0 30 6 37 13 11 10 14 9 18 -1 3 -6 9 -10 14 -6 5 3 22 8 37 10 61 11
49 51 -13 45 -20 -1 -35 2 -35 8 0 12 -13 15 -23 5z"/>
<path d="M2955 4360 c-30 -8 -30 -8 8 -9 23 -1 36 3 32 9 -3 6 -7 9 -8 9 -1
-1 -15 -5 -32 -9z"/>
<path d="M2865 4344 c9 -9 18 -14 21 -11 9 9 -6 27 -22 27 -13 0 -13 -2 1 -16z"/>
<path d="M3190 4357 c0 -22 34 -77 48 -77 8 0 13 3 9 6 -3 4 1 13 9 22 14 13
13 17 -6 36 -18 18 -22 19 -30 6 -9 -13 -11 -13 -20 0 -5 8 -10 11 -10 7z"/>
<path d="M2685 4340 c-4 -6 5 -10 19 -10 14 0 26 5 26 10 0 6 -9 10 -19 10
-11 0 -23 -4 -26 -10z"/>
<path d="M3353 4270 c0 -72 1 -73 6 -20 5 49 7 53 18 35 7 -11 13 -15 13 -8 0
7 7 10 18 7 14 -5 14 -3 -2 10 -11 9 -25 16 -32 16 -7 0 -15 8 -17 18 -3 9 -4
-17 -4 -58z"/>
<path d="M3470 4332 c0 -15 24 -32 47 -32 13 0 23 5 23 10 0 6 14 10 30 10 17
0 30 5 30 10 0 6 -18 10 -40 10 -29 0 -40 -4 -40 -15 0 -8 -5 -15 -11 -15 -5
0 -7 4 -4 10 4 6 -1 7 -11 3 -12 -4 -15 -3 -10 5 4 7 2 12 -3 12 -6 0 -11 -4
-11 -8z"/>
<path d="M2960 4321 c0 -5 9 -13 20 -16 11 -4 18 -10 15 -15 -3 -5 -1 -11 5
-15 5 -3 10 1 10 9 0 9 7 16 15 16 8 0 15 7 15 15 0 11 -11 15 -40 15 -22 0
-40 -4 -40 -9z"/>
<path d="M1063 4275 c-6 -7 -8 -18 -3 -26 7 -11 10 -10 15 3 10 24 2 38 -12
23z"/>
<path d="M1020 4260 c0 -5 5 -10 11 -10 5 0 7 5 4 10 -3 6 -8 10 -11 10 -2 0
-4 -4 -4 -10z"/>
<path d="M1350 4220 c-13 -8 -12 -11 5 -23 28 -21 48 -11 27 14 -9 10 -17 19
-17 19 0 0 -7 -5 -15 -10z"/>
<path d="M2524 4208 c-3 -4 2 -8 10 -8 8 0 17 4 20 8 3 5 -2 9 -10 9 -8 0 -17
-4 -20 -9z"/>
<path d="M2374 4199 c-13 -5 -3 -8 29 -8 26 -1 47 1 47 3 0 8 -58 12 -76 5z"/>
<path d="M3010 4189 c0 -5 5 -7 10 -4 6 3 10 8 10 11 0 2 -4 4 -10 4 -5 0 -10
-5 -10 -11z"/>
<path d="M1279 4178 c-1 -7 -1 -16 0 -20 0 -5 -10 -8 -23 -8 -14 0 -28 -5 -32
-11 -7 -12 15 -31 28 -23 4 3 8 0 8 -5 0 -6 -4 -11 -10 -11 -5 0 -10 -7 -10
-16 0 -8 5 -12 11 -9 6 5 9 -5 8 -27 -2 -18 -2 -51 -1 -72 2 -39 2 -39 23 -20
12 10 24 18 28 16 3 -2 8 5 10 14 2 13 -2 16 -18 11 -26 -6 -37 26 -22 63 5
14 10 18 11 10 0 -12 4 -11 15 4 8 11 15 14 15 8 0 -13 32 -16 44 -4 4 4 11 7
14 8 50 6 67 20 63 52 -2 15 15 16 22 2 3 -6 4 -5 3 2 -4 20 -31 15 -30 -4 1
-10 1 -18 0 -18 0 -1 -19 -3 -41 -6 -39 -5 -40 -5 -17 11 l23 17 -25 19 c-30
23 -46 24 -46 3 0 -10 -6 -14 -14 -11 -8 3 -17 0 -20 -8 -3 -8 2 -16 10 -18
10 -4 9 -5 -2 -3 -17 1 -29 46 -12 46 4 0 8 5 8 10 0 15 -20 12 -21 -2z"/>
<path d="M1410 4169 c0 -5 5 -7 10 -4 6 3 10 8 10 11 0 2 -4 4 -10 4 -5 0 -10
-5 -10 -11z"/>
<path d="M2260 4170 c0 -5 5 -10 10 -10 6 0 10 5 10 10 0 6 -4 10 -10 10 -5 0
-10 -4 -10 -10z"/>
<path d="M1116 4155 c4 -8 8 -15 10 -15 2 0 4 7 4 15 0 8 -4 15 -10 15 -5 0
-7 -7 -4 -15z"/>
<path d="M1170 4155 c0 -8 -7 -18 -15 -21 -17 -7 -21 -34 -5 -34 6 0 10 7 10
15 0 8 4 15 9 15 13 0 22 28 11 35 -6 4 -10 -1 -10 -10z"/>
<path d="M2336 4161 c-3 -4 -20 -11 -38 -15 -25 -5 -30 -9 -18 -16 8 -5 19 -5
25 -1 5 5 18 7 28 6 9 -2 17 1 17 6 0 5 7 9 16 9 8 0 12 5 9 10 -8 12 -32 13
-39 1z"/>
<path d="M2528 4163 c7 -3 16 -2 19 1 4 3 -2 6 -13 5 -11 0 -14 -3 -6 -6z"/>
<path d="M1084 4135 c-9 -34 -2 -40 13 -9 6 13 7 26 2 29 -4 3 -11 -6 -15 -20z"/>
<path d="M2147 4146 c-9 -9 -20 -16 -25 -16 -5 0 -15 -6 -21 -14 -18 -21 6
-32 28 -12 10 9 21 16 24 16 14 0 7 -23 -10 -36 -17 -12 -17 -13 0 -19 25 -10
21 -25 -8 -25 -14 0 -29 -8 -35 -20 -9 -18 -8 -20 15 -20 15 0 24 5 23 13 -2
8 8 11 32 9 25 -2 31 0 21 7 -10 7 -7 9 12 8 14 -1 24 -4 22 -6 -2 -2 2 -10
10 -18 18 -17 55 -8 55 13 0 25 -20 54 -36 54 -8 0 -13 4 -10 9 3 5 -10 8 -29
7 -33 -1 -45 9 -45 37 0 7 5 4 10 -5 9 -15 13 -15 37 -3 15 8 30 12 35 9 4 -3
8 -1 8 5 0 5 -8 9 -17 9 -10 -1 -32 2 -49 6 -23 5 -36 3 -47 -8z"/>
<path d="M2408 4153 c7 -3 16 -2 19 1 4 3 -2 6 -13 5 -11 0 -14 -3 -6 -6z"/>
<path d="M1525 4130 c3 -5 11 -10 16 -10 6 0 7 5 4 10 -3 6 -11 10 -16 10 -6
0 -7 -4 -4 -10z"/>
<path d="M2524 4128 c-4 -7 -4 -10 1 -6 4 4 15 3 24 -2 11 -5 23 -5 32 2 11 8
11 9 -3 4 -10 -3 -18 -1 -18 4 0 14 -28 12 -36 -2z"/>
<path d="M2385 4120 c11 -5 14 -9 8 -9 -7 -1 -13 -8 -13 -16 0 -11 11 -15 40
-15 25 0 40 5 40 13 0 23 -15 32 -55 34 -31 2 -35 0 -20 -7z"/>
<path d="M1575 4109 c-10 -15 1 -23 20 -15 9 3 13 10 10 16 -8 13 -22 13 -30
-1z"/>
<path d="M3200 4090 c0 -27 3 -30 30 -30 27 0 30 3 30 30 0 27 -3 30 -30 30
-27 0 -30 -3 -30 -30z"/>
<path d="M1162 4050 c0 -14 2 -19 5 -12 2 6 2 18 0 25 -3 6 -5 1 -5 -13z"/>
<path d="M2038 4063 c-31 -8 -19 -23 18 -23 31 0 34 2 20 15 -8 8 -16 14 -18
14 -2 -1 -11 -3 -20 -6z"/>
<path d="M1943 4046 c-13 -7 -34 -29 -47 -49 -20 -29 -22 -36 -10 -41 8 -3 13
-2 10 2 -2 4 3 16 11 27 15 19 15 19 8 -4 -6 -20 -4 -23 10 -18 9 4 19 7 21 7
3 0 2 5 -2 12 -5 7 -3 8 7 2 19 -12 42 -11 51 1 4 6 8 2 8 -8 0 -26 24 -15 28
13 3 18 6 20 13 9 6 -9 9 -10 9 -2 0 15 -35 35 -44 26 -3 -3 -6 -1 -6 5 0 7
-12 12 -27 12 -22 0 -25 2 -13 10 22 14 -1 10 -27 -4z"/>
<path d="M2520 4050 c0 -5 9 -10 20 -10 11 0 20 5 20 10 0 6 -9 10 -20 10 -11
0 -20 -4 -20 -10z"/>
<path d="M1190 4035 c10 -12 10 -15 -1 -15 -22 0 -42 -17 -35 -29 5 -8 11 -7
21 3 8 8 20 16 27 18 14 5 3 38 -13 38 -8 0 -8 -4 1 -15z"/>
<path d="M2918 4033 c7 -3 16 -2 19 1 4 3 -2 6 -13 5 -11 0 -14 -3 -6 -6z"/>
<path d="M3058 4033 c7 -3 16 -2 19 1 4 3 -2 6 -13 5 -11 0 -14 -3 -6 -6z"/>
<path d="M3150 4029 c0 -6 -6 -9 -14 -6 -8 3 -16 2 -18 -3 -2 -5 -22 -11 -45
-12 -27 -2 -43 -8 -43 -16 0 -10 11 -12 45 -6 30 4 45 3 45 -5 0 -6 -15 -11
-32 -11 -18 0 -43 -3 -55 -6 -25 -7 -31 -29 -10 -37 14 -5 39 6 38 17 -1 3 1
6 4 6 3 0 10 0 16 0 20 0 -10 -28 -37 -34 -19 -5 -30 -1 -45 16 l-20 23 6 -22
c8 -30 -2 -61 -24 -73 -16 -8 -17 -6 -13 17 3 17 1 24 -6 19 -6 -3 -12 -1 -14
5 -3 8 -9 6 -20 -5 -18 -17 -43 -22 -33 -6 3 6 -3 10 -14 10 -12 0 -21 -3 -20
-7 0 -12 59 -56 59 -45 0 6 -6 13 -12 15 -8 3 -6 6 5 6 9 1 17 -4 17 -10 0 -5
5 -7 10 -4 15 9 12 -2 -7 -24 -14 -17 -18 -17 -30 -5 -16 16 -53 19 -53 4 0
-5 6 -10 13 -10 6 0 19 -4 27 -10 12 -7 11 -12 -9 -29 -13 -11 -28 -18 -32
-15 -5 3 -9 -2 -9 -10 0 -9 -5 -16 -11 -16 -5 0 -8 -4 -5 -9 3 -5 -3 -11 -14
-14 -12 -3 -20 -14 -20 -26 0 -15 -6 -21 -22 -21 -19 0 -20 -2 -8 -10 13 -8
12 -10 -3 -10 -10 0 -15 -4 -12 -10 3 -5 2 -10 -2 -10 -5 0 -17 -16 -27 -35
-11 -19 -23 -35 -28 -35 -5 0 -6 6 -1 13 4 6 8 21 8 32 0 11 4 21 8 22 16 5
38 33 32 43 -10 17 -33 11 -49 -12 -16 -22 -16 -22 -16 9 0 22 5 32 19 36 14
3 18 11 14 26 -6 24 -23 29 -23 7 0 -20 -20 -30 -33 -17 -8 8 -5 17 12 35 19
20 20 26 9 36 -8 8 -12 28 -9 53 3 39 3 39 -16 21 -12 -13 -15 -22 -9 -26 6
-5 -4 -5 -21 -2 -32 6 -48 -9 -20 -19 10 -4 10 -7 0 -18 -20 -20 -15 -39 10
-39 22 -1 22 -1 2 -16 -19 -14 -19 -15 3 -20 19 -6 22 -13 22 -55 0 -27 -4
-49 -10 -49 -5 0 -10 -7 -10 -15 0 -8 -7 -15 -16 -15 -8 0 -12 -4 -9 -10 3 -5
15 -10 26 -10 12 0 19 -7 19 -20 0 -11 5 -20 10 -20 6 0 10 9 10 21 0 11 6 27
14 34 11 11 13 9 12 -16 -1 -16 -5 -29 -9 -29 -5 0 -5 -5 -1 -12 4 -6 3 -8 -4
-4 -6 3 -16 -7 -23 -23 -7 -16 -18 -27 -23 -24 -5 4 -7 -1 -3 -11 6 -15 -8
-54 -25 -66 -11 -9 21 -43 35 -37 8 3 20 0 26 -6 16 -16 14 6 -4 29 -8 11 -15
14 -15 7 0 -7 -7 -13 -16 -13 -11 0 -14 5 -10 16 3 9 6 18 6 20 0 3 5 2 10 -1
6 -3 10 1 10 9 0 9 9 16 20 16 11 0 20 5 20 10 0 13 21 13 40 0 11 -7 12 -12
4 -17 -6 -5 -14 -21 -18 -38 -6 -27 -3 -32 33 -54 38 -24 39 -28 24 -71 -4 -8
-8 -24 -10 -35 -3 -15 -1 -17 9 -7 17 17 33 15 18 -3 -21 -25 22 -19 50 7 20
18 23 19 17 4 -4 -10 -7 -22 -7 -27 0 -5 -6 -9 -14 -9 -7 0 -19 -6 -25 -14 -9
-11 -6 -12 14 -9 13 3 27 15 31 26 l7 21 16 -20 c9 -11 21 -19 27 -17 18 6 25
-26 13 -50 -12 -21 -11 -22 8 -4 20 17 21 17 27 -15 4 -19 2 -34 -4 -36 -16
-6 -12 -39 6 -46 24 -9 25 -8 18 18 -3 13 -1 27 5 30 7 5 11 -3 11 -19 0 -17
4 -24 12 -19 8 5 9 0 6 -14 -4 -12 -1 -25 4 -29 7 -3 8 -1 4 5 -4 7 -2 12 3
12 6 0 11 -9 11 -21 0 -24 18 -60 36 -74 8 -5 15 -20 17 -32 2 -12 6 -25 9
-29 4 -3 4 -12 1 -20 -3 -8 0 -14 6 -14 6 0 11 -12 11 -27 0 -16 3 -51 8 -80
8 -48 7 -51 -10 -42 -21 11 -52 -2 -62 -27 -9 -24 6 -42 15 -18 5 11 6 4 3
-18 -7 -44 6 -50 26 -13 l14 26 13 -23 c12 -22 12 -21 14 20 1 23 2 45 4 50 8
28 20 42 35 42 11 0 21 4 24 9 3 5 15 7 26 4 25 -7 39 40 19 65 -23 28 -39 61
-39 77 0 9 -4 13 -10 10 -15 -10 -16 85 0 95 8 5 6 24 -4 58 -4 11 -2 23 4 27
5 3 10 20 10 36 0 18 -4 28 -10 24 -6 -4 -10 22 -10 72 0 54 3 73 10 63 7 -11
10 -4 10 25 0 27 -3 35 -9 26 -6 -9 -11 16 -15 70 -3 46 -8 105 -12 130 -4 34
-2 48 10 58 24 20 21 61 -4 61 -12 0 -20 7 -20 18 0 14 -2 15 -10 2 -8 -13 -9
-13 -14 0 -15 49 -16 88 0 101 14 11 18 10 30 -6 8 -10 14 -14 14 -8 0 6 3 19
7 29 4 11 3 15 -4 11 -17 -11 -43 3 -43 23 0 24 -18 36 -33 21 -8 -8 -6 -15 8
-24 10 -8 15 -19 11 -25 -9 -15 -36 -16 -36 -2 0 6 -7 10 -16 10 -8 0 -12 -4
-9 -10 3 -5 0 -10 -8 -10 -8 0 -26 -9 -40 -20 -22 -17 -26 -18 -31 -4 -5 12
-8 13 -20 2 -8 -7 -12 -16 -10 -19 2 -4 -10 -12 -27 -19 -22 -10 -27 -15 -17
-22 9 -6 7 -8 -7 -6 -15 2 -19 -2 -17 -19 2 -14 -4 -23 -18 -28 -11 -3 -18
-11 -15 -16 4 -5 -1 -12 -10 -15 -9 -4 -14 -13 -11 -20 3 -8 2 -14 -3 -14 -5
0 -14 -14 -22 -32 -7 -17 -15 -26 -17 -20 -7 22 -23 12 -18 -10 3 -13 3 -17 0
-10 -3 6 -10 12 -15 12 -14 0 -11 -28 4 -33 6 -2 9 -8 5 -12 -4 -4 -16 0 -28
8 -18 12 -19 17 -7 28 8 8 19 24 26 37 6 12 18 22 26 22 7 0 17 5 21 12 4 7 3
8 -4 4 -7 -4 -12 -2 -12 3 0 6 5 11 10 11 6 0 10 6 10 14 0 9 7 12 20 9 16 -4
18 -1 15 19 -4 19 6 33 46 69 28 24 59 52 70 61 17 16 19 16 27 1 5 -9 14 -13
21 -9 16 10 14 26 -4 26 -8 0 -15 2 -15 5 0 8 53 54 63 55 16 0 6 -18 -13 -23
-11 -3 -20 -10 -20 -16 0 -17 30 -13 36 4 4 8 14 15 23 15 14 0 14 2 1 10 -13
9 -13 11 0 20 8 5 20 10 26 10 7 0 14 7 18 15 3 8 18 15 32 15 15 0 25 -3 21
-6 -3 -3 3 -15 13 -26 19 -21 21 -73 5 -125 -7 -23 3 -30 21 -14 5 5 18 11 29
13 11 1 23 7 27 12 4 6 10 -2 13 -17 4 -15 11 -27 16 -27 13 0 11 -19 -3 -34
-10 -10 -16 -9 -30 8 -14 17 -17 18 -18 5 0 -9 -7 -20 -16 -23 -13 -5 -15 -15
-11 -41 4 -24 2 -35 -7 -35 -28 0 -33 -20 -21 -86 6 -35 15 -67 18 -71 9 -8 3
46 -7 68 -4 8 -3 26 3 40 9 24 9 23 19 -11 l10 -35 1 41 c1 45 27 69 43 39 5
-8 14 -15 19 -15 6 0 7 6 3 13 -5 7 0 6 11 -3 17 -13 18 -13 13 1 -4 10 -1 16
8 16 14 0 17 -7 16 -42 -1 -17 0 -17 4 -2 6 18 24 24 24 6 0 -6 -5 -20 -11
-31 -11 -21 -12 -21 -25 -3 -8 10 -14 14 -14 9 0 -6 5 -15 12 -22 9 -9 9 -12
0 -12 -7 0 -11 -9 -9 -22 2 -13 2 -17 0 -10 -3 6 -14 12 -25 12 -14 0 -18 5
-14 16 4 12 0 15 -17 12 -16 -2 -22 -10 -22 -28 0 -22 6 -26 52 -35 43 -8 51
-13 43 -25 -8 -12 -10 -12 -10 -1 0 8 -2 12 -5 10 -7 -7 6 -49 15 -49 5 0 10
8 13 18 3 14 6 13 14 -8 l11 -25 11 28 c15 37 14 42 -4 27 -16 -13 -20 -3 -7
18 5 7 15 10 23 7 15 -6 39 -50 39 -72 0 -7 4 -13 8 -13 4 0 9 -11 10 -23 1
-13 8 -36 16 -52 8 -15 12 -34 9 -41 -3 -8 1 -14 11 -14 9 0 16 -8 16 -20 0
-11 -4 -20 -10 -20 -5 0 -10 -7 -10 -16 0 -10 6 -14 15 -10 17 6 22 -29 5 -39
-5 -3 -9 -18 -9 -33 2 -25 2 -25 6 -4 3 16 9 22 20 18 8 -3 17 -6 19 -6 2 0 4
-15 4 -34 0 -18 7 -39 15 -46 19 -16 19 -30 0 -30 -9 0 -18 -6 -21 -14 -3 -8
-18 -16 -35 -20 -23 -4 -29 -11 -29 -32 l0 -27 21 27 c26 33 37 33 45 1 7 -30
24 -33 24 -5 0 25 16 26 29 3 7 -14 13 -15 22 -6 15 15 3 33 -22 33 -10 0 -19
6 -19 13 0 9 11 13 30 12 19 -1 30 3 30 12 0 10 -8 12 -27 7 -28 -7 -28 -7 -9
15 11 11 27 21 38 21 14 0 18 8 18 40 0 22 5 40 10 40 6 0 10 5 10 10 0 6 -9
10 -20 10 -11 0 -20 5 -20 10 0 17 -18 11 -22 -7 -2 -10 3 -23 11 -29 9 -7 12
-20 7 -38 -8 -32 -26 -25 -26 10 0 13 -4 24 -10 24 -13 0 -13 37 0 45 21 13
38 76 38 139 -1 52 -4 62 -13 49 -9 -11 -14 -13 -19 -4 -4 6 0 18 8 26 8 9 13
22 10 30 -3 7 -1 22 5 32 9 16 10 16 11 -5 0 -20 5 -22 36 -20 40 2 56 23 47
57 -6 23 -22 24 -64 7 -12 -5 -18 0 -23 24 -5 28 -9 31 -38 29 -84 -5 -81 -8
-75 81 4 65 2 80 -9 80 -10 0 -14 -14 -14 -51 0 -27 -4 -48 -9 -45 -16 10 -19
-33 -3 -55 15 -21 14 -22 -6 -17 -30 8 -28 -13 3 -36 14 -11 23 -26 21 -33 -3
-8 -1 -11 4 -8 6 3 10 -3 10 -15 0 -12 4 -19 9 -16 5 4 12 0 14 -6 3 -7 8 1
12 19 4 17 13 34 21 37 8 3 14 13 14 21 0 20 31 16 38 -4 3 -8 0 -11 -7 -7 -6
4 -11 4 -10 -1 3 -22 -15 -53 -32 -53 -20 0 -27 -34 -9 -45 12 -8 13 -45 1
-45 -5 0 -12 -12 -16 -27 -5 -21 -8 -24 -15 -12 -5 7 -7 22 -4 32 3 9 1 17 -5
17 -6 0 -7 7 -4 17 4 11 3 14 -6 9 -6 -4 -11 -4 -10 1 2 15 -13 53 -22 53 -5
0 -9 6 -9 13 0 8 -7 28 -16 45 -9 19 -13 41 -9 53 6 17 4 21 -7 17 -9 -4 -19
5 -28 25 -10 23 -10 32 -2 35 14 4 16 42 3 42 -5 0 -12 -8 -16 -17 -7 -16 -9
-14 -15 7 -7 26 9 47 22 27 14 -23 19 39 4 73 -9 22 -11 41 -5 51 6 12 4 21
-6 29 -17 14 -35 5 -35 -17 0 -13 3 -13 15 -3 12 10 15 10 15 -2 0 -8 -4 -18
-10 -24 -6 -6 -6 -22 0 -44 13 -46 13 -50 -5 -50 -14 0 -19 14 -18 47 1 7 -3
10 -8 7 -5 -3 -12 3 -16 13 -4 10 -10 21 -15 24 -4 3 -9 17 -10 32 -1 16 -10
29 -20 33 -16 5 -16 7 -4 20 19 19 26 18 26 -4 0 -10 6 -27 14 -38 14 -19 15
-19 22 0 5 12 3 21 -4 24 -7 2 -12 14 -12 26 0 22 -17 46 -32 46 -4 0 -8 -6
-8 -12 0 -22 -17 -41 -29 -34 -8 5 -7 12 4 22 8 8 19 23 25 32 8 12 13 14 16
4 3 -6 10 -9 15 -6 6 3 16 0 24 -6 12 -10 15 -9 15 4 0 9 -6 16 -13 16 -7 0
-19 9 -27 20 -8 11 -22 20 -32 20 -10 0 -18 5 -18 10 0 6 -7 10 -15 10 -8 0
-15 6 -15 14 0 15 -29 30 -39 20 -3 -3 3 -12 13 -20 11 -8 15 -14 10 -14 -14
0 -54 43 -54 58 0 15 26 16 35 2 9 -15 25 -12 25 5 0 8 -7 15 -15 15 -8 0 -15
5 -15 10 0 6 -4 10 -10 10 -5 0 -10 -5 -10 -11z m45 -104 c12 0 21 -8 24 -20
2 -11 8 -23 14 -27 7 -4 4 -12 -6 -23 -15 -15 -17 -15 -17 -1 0 9 -4 16 -9 16
-10 0 -9 19 2 37 6 9 3 11 -7 7 -9 -3 -16 -13 -16 -21 0 -12 -2 -12 -15 1 -8
8 -15 19 -15 25 0 6 -9 11 -19 11 -29 0 -35 18 -9 22 13 2 30 -3 38 -12 8 -8
24 -15 35 -15z m-19 -142 c-10 -10 -19 5 -10 18 6 11 8 11 12 0 2 -7 1 -15 -2
-18z m27 -23 c3 -11 1 -18 -3 -15 -5 3 -10 -1 -13 -7 -2 -8 -8 -9 -13 -4 -5 5
-4 11 4 13 6 3 12 11 12 19 0 20 7 17 13 -6z m-155 -80 c6 -22 12 -48 12 -58
0 -10 4 -22 9 -27 35 -37 53 -677 21 -709 -7 -7 -10 -2 -10 12 0 12 -4 22 -10
22 -5 0 -10 9 -10 20 0 11 -4 20 -10 20 -5 0 -10 6 -10 14 0 8 -16 42 -35 76
-19 34 -35 66 -35 71 0 5 -4 9 -10 9 -5 0 -10 5 -10 11 0 6 -6 16 -12 24 -7 7
-22 25 -33 40 -27 38 -116 122 -160 152 -40 27 -43 40 -15 76 11 14 20 28 20
32 0 4 8 15 18 24 9 9 30 33 45 53 35 48 115 125 150 146 15 9 27 20 27 24 0
4 10 8 23 8 17 0 25 -9 35 -40z m-399 -63 c1 -5 -3 -5 -9 -2 -5 3 -10 -1 -10
-9 0 -9 -4 -16 -10 -16 -5 0 -10 7 -10 15 0 8 5 15 10 15 6 0 10 10 11 23 0
21 1 21 9 2 5 -11 9 -24 9 -28z m581 9 c0 -4 -7 -5 -16 -2 -13 5 -14 1 -8 -26
6 -30 5 -31 -10 -19 -17 14 -14 43 8 67 11 12 25 1 26 -20z m38 -19 c-14 -29
-38 -37 -38 -12 0 20 32 57 42 47 4 -4 2 -20 -4 -35z m-138 -3 c0 -6 -7 -14
-15 -18 -10 -3 -15 1 -15 13 0 10 7 18 15 18 8 0 15 -6 15 -13z m202 -127 c-6
-7 -9 -23 -5 -35 6 -25 -12 -30 -21 -6 -5 14 24 67 33 58 2 -2 -1 -9 -7 -17z
m183 -27 c3 -6 0 -17 -8 -24 -16 -16 -37 -4 -37 21 0 15 36 18 45 3z m-745
-154 c0 -3 -4 -8 -10 -11 -5 -3 -10 -1 -10 4 0 6 5 11 10 11 6 0 10 -2 10 -4z
m10 -36 c0 -5 -10 -10 -22 -10 -19 0 -20 2 -8 10 19 13 30 13 30 0z m804 -33
c7 -11 7 -20 0 -27 -6 -6 -13 0 -21 21 -13 33 1 37 21 6z m-21 -48 c11 -8 -9
-49 -24 -49 -6 0 -9 8 -7 18 2 11 -3 26 -10 35 -11 13 -11 19 0 36 13 21 13
21 22 -6 5 -16 13 -31 19 -34z m-413 -343 c0 -11 7 -30 15 -40 8 -11 15 -25
15 -30 0 -6 -5 -4 -10 4 -8 13 -10 13 -10 -2 0 -10 -9 -22 -20 -28 -15 -8 -21
-6 -30 10 -6 11 -15 18 -21 15 -5 -4 -9 0 -9 8 0 10 7 13 20 10 10 -3 19 -8
18 -12 -2 -19 3 -30 15 -26 13 6 21 65 8 65 -5 0 -11 13 -13 29 -3 21 -1 28 9
24 7 -3 13 -15 13 -27z"/>
<path d="M1227 4023 c-10 -9 -9 -51 1 -57 4 -2 9 11 10 30 3 35 1 39 -11 27z"/>
<path d="M1440 3995 c0 -18 5 -25 20 -25 15 0 20 7 20 25 0 18 -5 25 -20 25
-15 0 -20 -7 -20 -25z"/>
<path d="M2520 4010 c0 -5 6 -10 14 -10 8 0 18 5 21 10 3 6 -3 10 -14 10 -12
0 -21 -4 -21 -10z"/>
<path d="M2880 4005 c0 -8 5 -15 10 -15 6 0 10 7 10 15 0 8 -4 15 -10 15 -5 0
-10 -7 -10 -15z"/>
<path d="M3300 3990 c0 -23 4 -30 20 -30 13 0 20 -7 20 -20 0 -11 5 -20 10
-20 6 0 10 23 10 50 0 49 -1 50 -30 50 -27 0 -30 -3 -30 -30z"/>
<path d="M1622 3990 c1 -19 -4 -30 -13 -30 -6 0 -9 7 -6 14 4 10 1 13 -9 9
-19 -7 -18 -19 3 -27 11 -5 22 0 31 11 15 20 21 21 33 1 6 -9 8 -7 7 7 -1 14
-9 20 -24 20 -12 0 -22 -2 -22 -5z"/>
<path d="M2373 3985 c-18 -20 -16 -25 7 -25 13 0 20 7 20 20 0 23 -10 25 -27
5z"/>
<path d="M2981 3984 c0 -11 3 -14 6 -6 3 7 2 16 -1 19 -3 4 -6 -2 -5 -13z"/>
<path d="M2254 3975 c-19 -14 -18 -14 4 -15 13 0 22 6 22 15 0 19 -1 19 -26 0z"/>
<path d="M1190 3964 c0 -8 5 -12 10 -9 6 4 8 11 5 16 -9 14 -15 11 -15 -7z"/>
<path d="M2180 3970 c0 -5 5 -10 10 -10 6 0 10 5 10 10 0 6 -4 10 -10 10 -5 0
-10 -4 -10 -10z"/>
<path d="M2450 3970 c0 -5 7 -10 15 -10 8 0 15 5 15 10 0 6 -7 10 -15 10 -8 0
-15 -4 -15 -10z"/>
<path d="M1445 3882 c0 -77 0 -77 28 -80 l27 -3 0 80 0 81 -27 0 -28 0 0 -78z"/>
<path d="M2853 3953 c-10 -4 -9 -8 1 -19 18 -18 26 -18 26 0 0 18 -11 25 -27
19z"/>
<path d="M1809 3932 c-11 -2 -15 -10 -11 -27 3 -20 10 -25 34 -25 27 0 28 1
14 16 -17 17 -21 28 -7 20 5 -3 11 1 14 8 6 14 -5 16 -44 8z"/>
<path d="M1891 3931 c-7 -5 -11 -13 -7 -19 3 -6 1 -14 -4 -17 -7 -5 -5 -12 7
-22 17 -13 15 -14 -15 -9 -31 5 -32 5 -16 -11 15 -16 15 -18 -5 -35 l-22 -17
28 2 c24 2 28 -1 25 -20 -3 -18 2 -23 17 -23 23 0 29 25 9 33 -12 5 35 11 55
8 19 -3 18 31 -2 48 -22 19 -29 51 -11 51 6 0 10 9 10 20 0 15 -7 20 -27 20
-16 0 -34 -4 -42 -9z"/>
<path d="M1330 3911 c0 -5 -10 -12 -22 -15 -47 -12 -51 -20 -28 -61 13 -24 18
-40 11 -44 -14 -9 -2 -51 15 -51 8 0 14 4 14 10 0 6 9 6 23 1 12 -4 28 -6 35
-4 6 3 15 -5 20 -16 10 -29 28 -13 35 34 4 22 3 34 -2 27 -4 -8 -20 -11 -37
-9 -23 3 -29 9 -29 27 0 13 6 25 13 28 7 2 10 -2 6 -12 -3 -9 -1 -16 5 -16 12
0 13 2 15 43 1 15 -2 27 -6 27 -4 0 -8 6 -8 14 0 14 -21 26 -46 26 -8 0 -14
-4 -14 -9z m10 -39 c0 -5 -13 -9 -30 -10 -16 0 -30 4 -30 9 0 5 14 9 30 9 17
0 30 -4 30 -8z m5 -92 c3 -5 -1 -10 -10 -10 -9 0 -13 5 -10 10 3 6 8 10 10 10
2 0 7 -4 10 -10z"/>
<path d="M2961 3894 c0 -11 3 -14 6 -6 3 7 2 16 -1 19 -3 4 -6 -2 -5 -13z"/>
<path d="M2738 3873 c7 -3 16 -2 19 1 4 3 -2 6 -13 5 -11 0 -14 -3 -6 -6z"/>
<path d="M4160 3864 c0 -8 5 -12 10 -9 6 3 10 10 10 16 0 5 -4 9 -10 9 -5 0
-10 -7 -10 -16z"/>
<path d="M2770 3850 c-12 -12 -19 -24 -16 -28 4 -3 16 5 27 17 27 29 17 39
-11 11z"/>
<path d="M2000 3830 c0 -16 5 -30 10 -30 6 0 10 14 10 30 0 17 -4 30 -10 30
-5 0 -10 -13 -10 -30z"/>
<path d="M3112 3838 c2 -6 10 -13 16 -14 7 -1 8 0 2 3 -5 2 -8 9 -4 14 3 5 0
9 -6 9 -7 0 -10 -5 -8 -12z"/>
<path d="M1840 3829 c0 -5 5 -7 10 -4 6 3 10 8 10 11 0 2 -4 4 -10 4 -5 0 -10
-5 -10 -11z"/>
<path d="M3326 3822 c-4 -13 -5 -26 -2 -29 10 -11 18 4 14 29 l-4 23 -8 -23z"/>
<path d="M1600 3810 c0 -5 9 -10 20 -10 11 0 20 5 20 10 0 6 -9 10 -20 10 -11
0 -20 -4 -20 -10z"/>
<path d="M1760 3811 c0 -6 3 -11 8 -12 4 0 15 -2 24 -4 10 -2 20 0 23 5 3 5
-3 7 -12 5 -10 -1 -24 2 -30 8 -9 6 -13 6 -13 -2z"/>
<path d="M2787 3790 c-3 -11 2 -25 11 -32 10 -8 13 -9 9 -1 -4 6 0 18 8 26 20
20 19 27 -4 27 -10 0 -21 -9 -24 -20z"/>
<path d="M4036 3763 c11 -60 21 -59 31 1 5 32 3 36 -16 36 -20 0 -21 -4 -15
-37z"/>
<path d="M4083 3760 c0 -25 2 -35 4 -22 2 12 2 32 0 45 -2 12 -4 2 -4 -23z"/>
<path d="M2718 3773 c-19 -5 -25 -23 -9 -23 17 0 41 12 41 21 0 9 -4 10 -32 2z"/>
<path d="M2760 3755 c0 -8 -6 -15 -14 -15 -20 0 -40 -26 -26 -35 6 -3 8 -11 5
-16 -4 -5 1 -9 9 -9 8 0 18 5 21 10 3 6 -1 10 -9 10 -9 0 -16 5 -16 11 0 6 9
9 20 6 11 -3 17 -1 14 4 -3 5 2 12 10 15 20 8 20 20 1 28 -9 3 -15 0 -15 -9z"/>
<path d="M3405 3750 c3 -5 8 -10 11 -10 2 0 4 5 4 10 0 6 -5 10 -11 10 -5 0
-7 -4 -4 -10z"/>
<path d="M2448 3728 c-7 -19 2 -38 18 -38 8 0 14 10 14 25 0 26 -24 35 -32 13z"/>
<path d="M3307 3733 c-3 -5 -2 -15 2 -22 5 -7 11 -9 14 -4 3 5 2 15 -2 22 -5
7 -11 9 -14 4z"/>
<path d="M3091 3700 c6 -16 15 -30 20 -30 11 0 11 3 -1 34 -14 37 -32 33 -19
-4z"/>
<path d="M1442 3700 c0 -14 2 -19 5 -12 2 6 2 18 0 25 -3 6 -5 1 -5 -13z"/>
<path d="M3404 3674 c4 -15 13 -33 21 -40 12 -13 14 -10 10 15 -4 36 -12 51
-27 51 -6 0 -8 -10 -4 -26z"/>
<path d="M1760 3660 c0 -13 7 -20 20 -20 13 0 20 7 20 20 0 13 -7 20 -20 20
-13 0 -20 -7 -20 -20z"/>
<path d="M3150 3660 c0 -5 5 -10 11 -10 5 0 7 5 4 10 -3 6 -8 10 -11 10 -2 0
-4 -4 -4 -10z"/>
<path d="M1441 3644 c0 -11 3 -14 6 -6 3 7 2 16 -1 19 -3 4 -6 -2 -5 -13z"/>
<path d="M4160 3650 c0 -5 5 -10 10 -10 6 0 10 5 10 10 0 6 -4 10 -10 10 -5 0
-10 -4 -10 -10z"/>
<path d="M4367 3618 c3 -32 2 -39 -6 -28 -17 24 -14 -6 4 -40 14 -26 14 -29 0
-24 -8 4 -15 10 -15 14 0 4 -7 11 -16 14 -8 3 -12 2 -9 -4 3 -5 1 -18 -4 -27
-8 -14 -10 -2 -11 49 0 58 -2 66 -17 63 -10 -2 -21 -4 -25 -4 -5 -1 -8 -35 -8
-76 0 -72 1 -75 24 -75 20 0 25 -6 30 -45 8 -48 18 -55 44 -29 14 15 14 17 -1
26 -9 5 -17 16 -17 24 0 9 -5 12 -12 8 -7 -4 -8 -3 -4 4 4 7 17 12 29 11 12 0
16 -3 10 -6 -7 -2 -13 -12 -13 -20 0 -10 5 -13 18 -8 17 7 39 13 55 14 10 1 9
31 -1 31 -4 0 -13 -5 -18 -10 -7 -7 -9 -1 -6 20 3 21 9 30 18 26 18 -7 18 2
-1 20 -11 11 -15 12 -15 3 0 -7 -3 -10 -6 -6 -3 3 -1 14 5 24 6 10 11 15 11
11 0 -13 40 31 40 45 0 7 -10 14 -22 14 -13 1 -24 7 -26 13 -2 5 -12 10 -22
10 -15 0 -17 -6 -13 -42z"/>
<path d="M2565 3630 c-3 -5 -1 -10 4 -10 6 0 11 5 11 10 0 6 -2 10 -4 10 -3 0
-8 -4 -11 -10z"/>
<path d="M3400 3621 c0 -6 5 -13 10 -16 6 -3 10 1 10 9 0 9 -4 16 -10 16 -5 0
-10 -4 -10 -9z"/>
<path d="M1318 3613 c-51 -6 -49 -23 2 -20 24 1 40 7 40 15 0 6 -1 11 -2 10
-2 -1 -20 -3 -40 -5z"/>
<path d="M2460 3610 c0 -5 5 -10 10 -10 6 0 10 5 10 10 0 6 -4 10 -10 10 -5 0
-10 -4 -10 -10z"/>
<path d="M4500 3611 c8 -6 11 -11 5 -11 -5 0 1 -9 13 -18 l24 -18 -23 -48
c-18 -40 -20 -49 -8 -57 11 -8 9 -9 -6 -7 -11 2 -21 9 -21 16 -1 6 -2 17 -3
22 0 6 -5 10 -11 10 -16 0 -12 -37 5 -44 18 -6 35 -45 28 -63 -9 -24 -20 -13
-15 15 4 26 4 26 -14 10 -14 -14 -15 -20 -6 -30 15 -15 16 -48 2 -48 -5 0 -10
-6 -10 -12 0 -7 -4 -19 -9 -27 -7 -11 -13 -11 -32 4 -24 17 -24 17 -1 10 20
-6 21 -4 13 19 -7 17 -7 26 2 30 7 4 -2 4 -19 2 -17 -3 -36 0 -43 7 -8 8 -11
4 -11 -18 0 -20 3 -26 9 -17 6 10 10 9 14 -7 4 -16 0 -21 -14 -21 -10 0 -19
-7 -19 -15 0 -8 7 -15 15 -15 8 0 15 -7 15 -15 0 -8 -9 -15 -20 -15 -11 0 -20
7 -20 15 0 8 -4 15 -10 15 -14 0 -13 -37 1 -42 8 -3 6 -10 -5 -20 -27 -28 -14
-90 15 -72 8 5 24 7 37 5 13 -1 25 4 28 13 3 9 12 16 20 16 8 0 14 5 14 10 0
6 -5 10 -11 10 -8 0 -7 6 2 16 12 14 11 16 -6 13 -11 -3 -21 -13 -23 -23 -5
-22 -30 -51 -38 -43 -3 3 -2 22 2 43 4 22 9 34 11 27 2 -7 11 -9 19 -6 17 6
19 49 2 56 -8 3 -6 6 4 6 9 1 23 -11 30 -26 10 -20 26 -31 63 -41 28 -8 62
-21 78 -29 26 -14 27 -13 27 10 0 25 -14 34 -75 46 -26 5 -30 10 -28 36 1 16
7 31 13 33 5 2 10 10 10 17 0 7 3 15 8 17 18 8 72 128 71 159 0 19 -3 28 -6
22 -2 -7 -11 -13 -19 -13 -9 0 -12 -4 -9 -10 3 -5 -1 -10 -11 -10 -11 0 -15
-6 -11 -20 6 -22 5 -23 -17 -14 -13 5 -13 11 7 45 12 21 28 39 35 39 6 0 12 5
12 12 0 6 -3 9 -6 5 -8 -7 -34 17 -34 32 0 6 -4 11 -9 11 -5 0 -18 3 -28 6
-15 5 -15 4 -3 -5z"/>
<path d="M1886 3594 c-23 -22 -20 -34 9 -34 20 0 25 5 25 25 0 29 -12 32 -34
9z"/>
<path d="M3431 3598 c0 -10 -8 -18 -17 -18 -10 0 -14 -6 -10 -15 3 -8 0 -15
-7 -15 -8 0 -7 -3 2 -9 11 -7 18 -2 28 17 8 14 12 33 10 41 -4 13 -5 13 -6 -1z"/>
<path d="M2561 3544 c0 -11 3 -14 6 -6 3 7 2 16 -1 19 -3 4 -6 -2 -5 -13z"/>
<path d="M2580 3541 c0 -25 6 -27 13 -6 4 8 2 17 -3 20 -6 4 -10 -3 -10 -14z"/>
<path d="M4480 3536 c0 -9 5 -16 10 -16 6 0 10 4 10 9 0 6 -4 13 -10 16 -5 3
-10 -1 -10 -9z"/>
<path d="M985 3510 c3 -5 13 -10 21 -10 8 0 14 5 14 10 0 6 -9 10 -21 10 -11
0 -17 -4 -14 -10z"/>
<path d="M1425 3510 c-3 -5 1 -10 9 -10 9 0 16 5 16 10 0 6 -4 10 -9 10 -6 0
-13 -4 -16 -10z"/>
<path d="M1032 3476 c-1 -14 2 -26 8 -26 16 0 20 17 7 34 -11 15 -13 15 -15
-8z"/>
<path d="M1320 3490 c0 -5 5 -10 10 -10 6 0 10 -9 10 -20 0 -11 5 -20 10 -20
6 0 10 -9 10 -20 0 -13 7 -20 20 -20 11 0 20 -4 20 -10 0 -5 9 -10 20 -10 32
0 23 27 -25 75 -42 42 -75 58 -75 35z"/>
<path d="M1401 3494 c-1 -14 29 -41 30 -28 1 5 5 -2 9 -16 l8 -25 1 28 c1 20
-4 27 -18 27 -11 0 -22 6 -24 13 -4 7 -6 8 -6 1z"/>
<path d="M924 3483 c3 -4 1 -12 -5 -20 -14 -16 -5 -17 22 -3 15 8 19 7 19 -5
0 -8 -5 -15 -11 -15 -5 0 -7 -5 -3 -11 5 -8 9 -8 14 1 6 9 11 7 19 -6 9 -17
10 -17 11 -1 0 9 -4 17 -10 17 -5 0 -10 9 -10 20 0 11 -3 20 -7 21 -5 0 -16 2
-26 4 -11 2 -16 1 -13 -2z"/>
<path d="M990 3470 c0 -5 5 -10 10 -10 6 0 10 5 10 10 0 6 -4 10 -10 10 -5 0
-10 -4 -10 -10z"/>
<path d="M2480 3465 c0 -8 5 -15 10 -15 6 0 10 7 10 15 0 8 -4 15 -10 15 -5 0
-10 -7 -10 -15z"/>
<path d="M1098 3453 c-3 -5 -3 -18 -2 -30 0 -13 -3 -23 -7 -23 -16 0 -10 -38
7 -44 25 -10 34 -7 34 9 0 12 15 15 75 15 43 0 75 4 75 10 0 6 -35 10 -84 10
-84 0 -85 0 -80 24 4 23 -10 45 -18 29z"/>
<path d="M2566 3445 c-9 -26 -7 -32 5 -12 6 10 9 21 6 23 -2 3 -7 -2 -11 -11z"/>
<path d="M1291 3434 c0 -11 3 -14 6 -6 3 7 2 16 -1 19 -3 4 -6 -2 -5 -13z"/>
<path d="M2620 3420 c0 -5 7 -10 15 -10 8 0 15 5 15 10 0 6 -7 10 -15 10 -8 0
-15 -4 -15 -10z"/>
<path d="M736 3403 c-6 -14 -5 -15 5 -6 7 7 10 15 7 18 -3 3 -9 -2 -12 -12z"/>
<path d="M1970 3410 c0 -5 5 -10 11 -10 5 0 7 5 4 10 -3 6 -8 10 -11 10 -2 0
-4 -4 -4 -10z"/>
<path d="M4417 3406 c-4 -10 -5 -21 -2 -24 9 -9 17 6 13 25 -3 17 -4 17 -11
-1z"/>
<path d="M870 3386 c0 -16 -4 -25 -10 -21 -6 3 -10 -5 -10 -18 0 -20 4 -24 20
-20 17 5 19 11 14 42 -8 45 -14 52 -14 17z"/>
<path d="M2653 3395 c-3 -9 -3 -18 -1 -21 3 -3 8 4 11 16 6 23 -1 27 -10 5z"/>
<path d="M1054 3367 c-8 -21 2 -35 16 -21 5 5 6 15 0 24 -8 12 -10 12 -16 -3z"/>
<path d="M821 3365 c-2 -5 -4 -21 -4 -35 -1 -15 -7 -24 -16 -22 -8 2 -11 -3
-8 -11 3 -7 -4 -19 -14 -25 -10 -7 -19 -20 -19 -30 0 -13 2 -14 9 -4 4 8 11
13 15 13 19 -3 26 0 26 12 0 8 9 22 20 32 19 17 20 17 20 1 0 -9 5 -14 10 -11
16 10 12 23 -9 30 -12 3 -22 17 -24 33 -2 15 -5 23 -6 17z"/>
<path d="M3371 3358 c0 -10 -4 -18 -9 -18 -4 0 -12 -21 -19 -47 -8 -37 -8 -52
2 -66 12 -17 13 -16 19 7 3 13 3 38 -1 56 -4 21 -2 35 7 40 6 4 10 16 7 26 -4
17 -5 17 -6 2z"/>
<path d="M2564 3337 c0 -15 6 -23 14 -20 10 4 10 9 0 22 -7 9 -13 17 -14 19
-1 2 -1 -8 0 -21z"/>
<path d="M3227 3326 c-5 -21 -6 -41 -3 -44 12 -11 17 7 14 44 l-3 39 -8 -39z"/>
<path d="M3637 3348 c-14 -7 -17 -25 -17 -93 0 -110 18 -111 22 -2 3 71 5 82
21 81 9 -1 17 2 17 6 0 13 -25 18 -43 8z"/>
<path d="M2653 3343 c-20 -7 -15 -23 7 -23 12 0 20 -6 19 -12 -1 -7 3 -26 10
-43 9 -22 14 -26 21 -16 4 8 6 20 3 28 -3 7 0 20 7 28 10 12 9 15 -5 15 -10 0
-26 6 -34 14 -9 7 -22 11 -28 9z"/>
<path d="M1380 3330 c0 -5 14 -10 30 -10 17 0 30 5 30 10 0 6 -13 10 -30 10
-16 0 -30 -4 -30 -10z"/>
<path d="M2618 3335 c-9 -10 3 -43 18 -49 17 -7 17 2 1 32 -7 12 -16 20 -19
17z"/>
<path d="M3282 3320 c0 -14 2 -19 5 -12 2 6 2 18 0 25 -3 6 -5 1 -5 -13z"/>
<path d="M948 3313 c7 -3 16 -2 19 1 4 3 -2 6 -13 5 -11 0 -14 -3 -6 -6z"/>
<path d="M1110 3313 c0 -6 7 -18 15 -27 8 -8 15 -23 15 -33 1 -17 1 -17 11 -1
8 14 4 24 -16 45 -14 15 -25 23 -25 16z"/>
<path d="M3513 3313 c-15 -5 -17 -23 -4 -23 5 0 11 7 15 15 3 8 4 15 3 14 -1
0 -8 -3 -14 -6z"/>
<path d="M910 3294 c0 -8 -4 -12 -10 -9 -5 3 -10 1 -10 -4 0 -6 7 -11 15 -11
8 0 15 9 15 20 0 11 -2 20 -5 20 -3 0 -5 -7 -5 -16z"/>
<path d="M3311 3294 c0 -11 3 -14 6 -6 3 7 2 16 -1 19 -3 4 -6 -2 -5 -13z"/>
<path d="M3391 3300 c-1 -3 -4 -26 -6 -52 -4 -45 -3 -47 15 -35 22 13 25 27
11 43 -5 5 -11 18 -14 29 -3 11 -5 18 -6 15z"/>
<path d="M3177 3283 c-4 -3 -7 -24 -7 -45 0 -24 -4 -37 -10 -33 -6 4 -10 -5
-10 -19 0 -15 6 -26 14 -26 14 0 31 84 19 103 -3 6 -1 7 5 3 7 -4 12 -1 12 8
0 17 -12 21 -23 9z"/>
<path d="M2567 3274 c-12 -13 -8 -65 7 -80 20 -19 26 -18 26 6 0 15 7 20 29
20 28 0 50 25 35 39 -4 3 -9 0 -11 -6 -5 -15 -33 -17 -33 -3 0 6 -9 10 -19 10
-11 0 -21 5 -23 11 -2 5 -7 7 -11 3z"/>
<path d="M595 3221 c-3 -5 -1 -12 5 -16 5 -3 10 1 10 9 0 18 -6 21 -15 7z"/>
<path d="M3306 3213 c-4 -9 0 -23 9 -32 13 -14 15 -13 15 11 0 32 -15 45 -24
21z"/>
<path d="M3200 3201 c-14 -27 -13 -41 5 -41 10 0 15 10 15 30 0 35 -5 38 -20
11z"/>
<path d="M3282 3185 c0 -16 2 -22 5 -12 2 9 2 23 0 30 -3 6 -5 -1 -5 -18z"/>
<path d="M4465 3200 c3 -5 11 -10 16 -10 6 0 7 5 4 10 -3 6 -11 10 -16 10 -6
0 -7 -4 -4 -10z"/>
<path d="M2620 3181 c0 -17 7 -19 50 -18 33 1 50 6 50 15 0 7 -4 11 -9 7 -5
-3 -12 -1 -16 5 -3 5 -22 10 -41 10 -27 0 -34 -4 -34 -19z"/>
<path d="M4515 3192 c-13 -9 -17 -32 -6 -32 5 0 12 6 14 13 4 9 8 8 16 -3 6
-8 11 -10 11 -4 0 17 -24 34 -35 26z"/>
<path d="M3356 3181 c-4 -7 -5 -15 -2 -18 9 -9 19 4 14 18 -4 11 -6 11 -12 0z"/>
<path d="M570 3171 c0 -5 7 -12 16 -15 14 -5 15 -4 4 9 -14 17 -20 19 -20 6z"/>
<path d="M2816 3171 c-3 -5 1 -11 9 -15 8 -3 15 -1 15 4 0 13 -18 22 -24 11z"/>
<path d="M3400 3170 c0 -5 7 -10 15 -10 8 0 15 5 15 10 0 6 -7 10 -15 10 -8 0
-15 -4 -15 -10z"/>
<path d="M2382 3163 c-15 -3 -22 -10 -20 -21 2 -13 16 -18 58 -20 30 -2 58 -8
62 -15 4 -6 11 -8 15 -3 4 5 2 11 -4 13 -26 9 -12 23 22 23 19 0 35 5 35 11 0
5 -4 7 -10 4 -5 -3 -10 0 -10 7 0 9 -3 9 -10 -2 -9 -13 -10 -13 -10 0 0 13 -1
13 -10 0 -5 -8 -10 -10 -10 -4 0 11 -67 15 -108 7z"/>
<path d="M2855 3160 c-3 -5 -2 -10 4 -10 5 0 13 5 16 10 3 6 2 10 -4 10 -5 0
-13 -4 -16 -10z"/>
<path d="M1328 3153 c6 -2 18 -2 25 0 6 3 1 5 -13 5 -14 0 -19 -2 -12 -5z"/>
<path d="M1545 3150 c4 -6 11 -8 16 -5 14 9 11 15 -7 15 -8 0 -12 -5 -9 -10z"/>
<path d="M3304 3144 c3 -9 6 -18 6 -20 0 -3 5 -2 10 1 16 10 12 35 -6 35 -11
0 -14 -5 -10 -16z"/>
<path d="M3680 3080 l0 -80 30 0 30 0 0 80 0 80 -30 0 -30 0 0 -80z"/>
<path d="M2000 3131 c0 -12 25 -21 50 -16 12 2 24 -3 31 -16 10 -20 10 -20 28
0 10 12 26 21 35 21 9 0 16 5 16 10 0 6 -13 10 -30 10 -16 0 -30 -4 -30 -10 0
-10 -65 -8 -76 3 -10 10 -24 9 -24 -2z"/>
<path d="M2232 3123 c-12 -2 -19 -9 -16 -15 4 -7 0 -7 -12 -1 -21 10 -29 10
-61 -1 -13 -4 -23 -16 -23 -27 0 -13 7 -19 23 -19 18 0 19 -2 7 -10 -11 -7
-11 -10 -2 -10 7 0 10 -5 6 -12 -5 -7 -3 -8 7 -2 8 5 29 14 47 20 25 9 32 9
32 -1 0 -14 25 -14 37 0 4 4 2 5 -4 1 -7 -4 -13 -2 -13 3 0 6 9 11 20 11 11 0
20 -4 20 -10 0 -5 7 -7 15 -4 8 4 12 10 9 15 -3 5 -10 7 -15 4 -5 -4 -9 -1 -9
4 0 6 5 11 10 11 6 0 10 5 10 10 0 6 -11 8 -24 6 -16 -3 -30 2 -38 12 -12 16
-11 16 7 2 19 -14 19 -14 6 3 -7 9 -14 16 -15 16 0 -1 -11 -4 -24 -6z"/>
<path d="M4490 3120 c-8 -5 -11 -12 -8 -16 4 -3 14 1 23 10 18 17 9 21 -15 6z"/>
<path d="M4582 3121 c-11 -7 -11 -9 2 -14 10 -4 16 -1 16 8 0 17 -1 17 -18 6z"/>
<path d="M2877 3089 c4 -16 8 -17 14 -7 13 19 11 28 -5 28 -9 0 -12 -7 -9 -21z"/>
<path d="M2040 3081 c0 -12 -5 -21 -12 -21 -6 0 -8 -3 -5 -6 4 -4 28 -8 54
-10 27 -1 38 0 26 2 -13 3 -23 14 -25 27 -4 29 -38 36 -38 8z"/>
<path d="M3176 3091 c-4 -5 0 -11 6 -14 10 -4 11 -7 1 -18 -7 -7 -13 -28 -13
-46 l0 -33 80 0 c51 0 80 4 80 11 0 7 -26 9 -75 7 -41 -2 -75 0 -75 5 0 4 4 7
8 7 4 0 8 20 8 45 1 42 -7 57 -20 36z"/>
<path d="M4540 3084 c0 -11 5 -14 16 -10 9 3 22 6 30 6 9 0 12 5 9 10 -10 17
-55 12 -55 -6z"/>
<path d="M2455 3070 c3 -5 10 -10 16 -10 5 0 9 5 9 10 0 6 -7 10 -16 10 -8 0
-12 -4 -9 -10z"/>
<path d="M4430 3040 c0 -22 5 -40 10 -40 6 0 10 18 10 40 0 22 -4 40 -10 40
-5 0 -10 -18 -10 -40z"/>
<path d="M2405 3050 c-3 -5 -1 -10 4 -10 6 0 11 5 11 10 0 6 -2 10 -4 10 -3 0
-8 -4 -11 -10z"/>
<path d="M3360 3030 c0 -27 3 -30 30 -30 17 0 30 5 30 10 0 6 -6 10 -14 10 -8
0 -18 9 -21 20 -10 30 -25 24 -25 -10z"/>
<path d="M602 3025 c0 -16 2 -22 5 -12 2 9 2 23 0 30 -3 6 -5 -1 -5 -18z"/>
<path d="M4548 3043 c6 -2 18 -2 25 0 6 3 1 5 -13 5 -14 0 -19 -2 -12 -5z"/>
<path d="M2205 3030 c-3 -6 1 -7 9 -4 18 7 21 14 7 14 -6 0 -13 -4 -16 -10z"/>
<path d="M2560 3015 c0 -8 9 -15 20 -15 13 0 18 5 14 15 -4 8 -12 15 -20 15
-8 0 -14 -7 -14 -15z"/>
<path d="M3446 3003 c-7 -18 10 -43 30 -43 20 0 17 17 -5 39 -17 17 -20 17
-25 4z"/>
<path d="M4480 3010 c0 -5 5 -10 10 -10 6 0 10 5 10 10 0 6 -4 10 -10 10 -5 0
-10 -4 -10 -10z"/>
<path d="M4580 3010 c0 -5 5 -10 10 -10 6 0 10 5 10 10 0 6 -4 10 -10 10 -5 0
-10 -4 -10 -10z"/>
<path d="M2218 3003 c7 -3 16 -2 19 1 4 3 -2 6 -13 5 -11 0 -14 -3 -6 -6z"/>
<path d="M1940 2990 c0 -5 7 -10 16 -10 8 0 12 5 9 10 -3 6 -10 10 -16 10 -5
0 -9 -4 -9 -10z"/>
<path d="M1995 2990 c-3 -5 3 -10 14 -10 11 0 23 5 26 10 3 6 -3 10 -14 10
-11 0 -23 -4 -26 -10z"/>
<path d="M2760 2990 c0 -5 4 -10 9 -10 6 0 13 5 16 10 3 6 -1 10 -9 10 -9 0
-16 -4 -16 -10z"/>
<path d="M2950 2965 c0 -8 5 -15 10 -15 6 0 10 7 10 15 0 8 -4 15 -10 15 -5 0
-10 -7 -10 -15z"/>
<path d="M1126 2961 c-4 -7 -5 -15 -2 -18 9 -9 19 4 14 18 -4 11 -6 11 -12 0z"/>
<path d="M1920 2955 c0 -8 9 -15 20 -15 11 0 20 5 20 11 0 6 -7 8 -16 5 -8 -3
-12 -2 -9 4 3 6 1 10 -4 10 -6 0 -11 -7 -11 -15z"/>
<path d="M2981 2960 c0 -8 4 -22 9 -30 12 -18 12 -2 0 25 -6 13 -9 15 -9 5z"/>
<path d="M2660 2940 c0 -11 6 -20 13 -20 8 0 7 -3 -3 -10 -12 -8 -12 -10 3
-16 23 -8 47 13 47 42 0 20 -5 24 -30 24 -23 0 -30 -4 -30 -20z"/>
<path d="M3150 2946 c0 -12 7 -12 37 -4 20 5 54 8 74 5 20 -3 43 -1 50 4 9 5
-20 9 -73 9 -69 0 -88 -3 -88 -14z"/>
<path d="M3360 2940 c0 -15 7 -20 25 -20 29 0 32 -12 9 -34 -14 -14 -14 -18 0
-31 23 -23 26 -19 26 35 0 43 -3 50 -20 50 -11 0 -20 5 -20 10 0 6 -4 10 -10
10 -5 0 -10 -9 -10 -20z"/>
<path d="M1580 2930 c0 -5 5 -10 10 -10 6 0 10 5 10 10 0 6 -4 10 -10 10 -5 0
-10 -4 -10 -10z"/>
<path d="M2760 2894 c0 -14 4 -23 10 -19 6 3 10 15 10 26 0 10 -4 19 -10 19
-5 0 -10 -12 -10 -26z"/>
<path d="M3193 2913 c20 -2 54 -2 75 0 20 2 3 4 -38 4 -41 0 -58 -2 -37 -4z"/>
<path d="M1620 2890 c0 -5 9 -10 20 -10 11 0 20 5 20 10 0 6 -9 10 -20 10 -11
0 -20 -4 -20 -10z"/>
<path d="M2717 2893 c-4 -3 -4 -16 -1 -29 5 -20 2 -23 -28 -26 -18 -2 -31 -7
-28 -13 3 -5 16 -8 30 -5 14 2 37 4 53 4 15 1 27 1 27 2 0 0 -7 15 -16 32 -17
35 -28 45 -37 35z"/>
<path d="M3698 2893 c12 -2 32 -2 45 0 12 2 2 4 -23 4 -25 0 -35 -2 -22 -4z"/>
<path d="M2577 2883 c-5 -8 20 -50 26 -42 2 2 -2 15 -9 27 -6 13 -14 20 -17
15z"/>
<path d="M1888 2873 c-34 -5 -37 -23 -4 -23 33 0 57 10 50 21 -3 5 -8 8 -12 8
-4 -1 -19 -4 -34 -6z"/>
<path d="M2655 2871 c-8 -14 10 -22 30 -15 13 5 14 8 3 15 -17 11 -26 11 -33
0z"/>
<path d="M3170 2871 c0 -5 6 -14 14 -20 12 -10 13 -8 9 8 -5 21 -23 30 -23 12z"/>
<path d="M3335 2860 c-3 -5 1 -10 9 -10 9 0 16 5 16 10 0 6 -4 10 -9 10 -6 0
-13 -4 -16 -10z"/>
<path d="M1688 2849 c-10 -5 -14 -17 -11 -34 3 -13 10 -22 15 -19 6 4 8 -1 4
-14 -13 -39 12 -32 33 10 11 23 19 42 18 42 -1 1 -11 6 -23 12 -12 7 -26 8
-36 3z m22 -24 c0 -8 -2 -15 -4 -15 -2 0 -6 7 -10 15 -3 8 -1 15 4 15 6 0 10
-7 10 -15z"/>
<path d="M3585 2850 c3 -5 8 -10 11 -10 2 0 4 5 4 10 0 6 -5 10 -11 10 -5 0
-7 -4 -4 -10z"/>
<path d="M1594 2831 c-13 -30 -15 -71 -4 -71 6 0 10 8 9 18 -1 9 1 25 6 35 6
15 10 16 16 5 6 -9 8 -7 7 8 -2 24 -24 28 -34 5z"/>
<path d="M4450 2829 c0 -5 5 -7 10 -4 6 3 10 8 10 11 0 2 -4 4 -10 4 -5 0 -10
-5 -10 -11z"/>
<path d="M1614 2773 c5 -17 2 -22 -16 -26 -19 -4 -20 -4 -3 -5 11 -1 26 2 34
7 12 8 11 12 -4 27 -17 17 -17 17 -11 -3z"/>
<path d="M1230 2749 c0 -5 5 -7 10 -4 6 3 10 8 10 11 0 2 -4 4 -10 4 -5 0 -10
-5 -10 -11z"/>
<path d="M2816 2735 c-3 -8 -1 -15 4 -15 6 0 10 7 10 15 0 8 -2 15 -4 15 -2 0
-6 -7 -10 -15z"/>
<path d="M2751 2718 c-5 -13 -6 -29 -3 -37 4 -11 8 -10 19 5 15 21 17 54 3 54
-6 0 -14 -10 -19 -22z"/>
<path d="M3295 2690 c-3 -5 -1 -10 4 -10 6 0 11 5 11 10 0 6 -2 10 -4 10 -3 0
-8 -4 -11 -10z"/>
<path d="M3715 2690 c-3 -5 1 -10 9 -10 9 0 16 5 16 10 0 6 -4 10 -9 10 -6 0
-13 -4 -16 -10z"/>
<path d="M1578 2663 c6 -2 18 -2 25 0 6 3 1 5 -13 5 -14 0 -19 -2 -12 -5z"/>
<path d="M1500 2640 c-13 -8 -12 -10 3 -10 9 0 17 5 17 10 0 12 -1 12 -20 0z"/>
<path d="M3111 2643 c-1 -6 -4 -19 -8 -29 -4 -12 -3 -15 5 -10 8 5 12 -1 13
-16 0 -13 3 -18 5 -11 3 6 1 26 -5 45 -5 18 -10 28 -10 21z"/>
<path d="M3146 2633 c-10 -10 -7 -53 4 -53 6 0 10 5 10 10 0 6 4 10 9 10 6 0
12 -19 14 -42 l4 -43 1 41 c2 40 -26 92 -42 77z"/>
<path d="M1191 2620 c0 -8 4 -22 9 -30 12 -18 12 -2 0 25 -6 13 -9 15 -9 5z"/>
<path d="M506 2603 c-6 -14 -5 -15 5 -6 7 7 10 15 7 18 -3 3 -9 -2 -12 -12z"/>
<path d="M1160 2568 c0 -28 3 -49 6 -46 10 10 13 98 3 98 -5 0 -9 -23 -9 -52z"/>
<path d="M1460 2581 c0 -6 5 -13 10 -16 6 -3 10 1 10 9 0 9 -4 16 -10 16 -5 0
-10 -4 -10 -9z"/>
<path d="M2810 2576 c0 -9 5 -16 10 -16 6 0 10 4 10 9 0 6 -4 13 -10 16 -5 3
-10 -1 -10 -9z"/>
<path d="M3036 2575 c-11 -8 -15 -15 -9 -15 19 0 43 12 43 21 0 13 -12 11 -34
-6z"/>
<path d="M1310 2565 c7 -8 10 -22 6 -30 -3 -9 0 -15 8 -15 22 0 26 27 7 44
-22 20 -38 21 -21 1z"/>
<path d="M1360 2560 c0 -5 5 -10 10 -10 6 0 10 5 10 10 0 6 -4 10 -10 10 -5 0
-10 -4 -10 -10z"/>
<path d="M3080 2551 c0 -12 5 -21 10 -21 6 0 10 6 10 14 0 8 -4 18 -10 21 -5
3 -10 -3 -10 -14z"/>
<path d="M3140 2550 c0 -11 4 -20 9 -20 5 0 7 9 4 20 -3 11 -7 20 -9 20 -2 0
-4 -9 -4 -20z"/>
<path d="M3105 2520 c-3 -6 1 -7 9 -4 18 7 21 14 7 14 -6 0 -13 -4 -16 -10z"/>
<path d="M1175 2400 c-3 -5 -1 -10 4 -10 6 0 11 5 11 10 0 6 -2 10 -4 10 -3 0
-8 -4 -11 -10z"/>
<path d="M2960 2348 c0 -9 -3 -23 -6 -32 -4 -11 -1 -16 10 -16 9 0 16 8 16 20
0 11 5 20 10 20 6 0 10 -4 10 -10 0 -5 6 -7 13 -4 15 5 19 34 5 34 -4 0 -8 -4
-8 -9 0 -12 -33 -9 -42 4 -5 6 -8 3 -8 -7z"/>
<path d="M2925 2340 c-3 -5 -1 -10 4 -10 6 0 11 5 11 10 0 6 -2 10 -4 10 -3 0
-8 -4 -11 -10z"/>
<path d="M3698 2333 c12 -2 32 -2 45 0 12 2 2 4 -23 4 -25 0 -35 -2 -22 -4z"/>
<path d="M2917 2283 c2 -21 9 -40 15 -44 7 -4 8 -24 4 -55 -5 -35 -4 -45 3
-34 6 8 11 23 11 33 0 9 3 17 8 17 4 0 8 19 9 43 0 23 -1 34 -4 25 -6 -24 -23
-23 -23 1 0 25 -10 51 -20 51 -4 0 -5 -17 -3 -37z"/>
<path d="M3023 2245 c0 -40 2 -45 8 -25 7 19 7 15 4 -16 -6 -50 5 -164 15
-164 4 0 10 34 14 76 3 43 10 82 15 88 14 17 1 65 -20 77 -15 7 -17 6 -13 -6
4 -8 1 -15 -4 -15 -6 0 -12 8 -14 18 -2 9 -4 -5 -5 -33z m34 -92 c-3 -10 -5
-4 -5 12 0 17 2 24 5 18 2 -7 2 -21 0 -30z"/>
<path d="M2993 2189 c-16 -16 -17 -49 -3 -49 13 0 23 24 18 45 -2 13 -5 14
-15 4z"/>
<path d="M3148 2193 c14 -6 17 -53 2 -53 -5 0 -10 -18 -10 -40 0 -22 -4 -40
-10 -40 -5 0 -10 -9 -10 -20 0 -11 5 -20 10 -20 6 0 10 -9 10 -20 0 -11 5 -20
10 -20 6 0 10 -23 10 -50 0 -54 -17 -73 -49 -53 -15 9 -16 3 -13 -61 4 -81 8
-100 21 -91 5 3 12 1 15 -4 4 -5 -8 -8 -27 -6 -32 3 -32 2 -29 -36 2 -22 8
-39 13 -39 5 0 9 -15 9 -34 0 -31 19 -53 34 -39 3 4 6 35 6 70 0 35 4 63 10
63 6 0 10 -18 10 -40 0 -22 3 -40 6 -40 16 0 34 33 34 64 0 29 -4 36 -20 36
-18 0 -20 7 -20 80 0 47 4 80 10 80 6 0 10 33 10 79 0 54 4 81 13 84 7 2 8 8
3 13 -5 5 -11 4 -13 -3 -3 -7 -14 -13 -26 -12 -12 0 -16 3 -9 6 7 3 12 23 12
49 0 24 5 44 10 44 6 0 10 14 10 30 0 25 -4 30 -22 29 -13 0 -17 -3 -10 -6z"/>
<path d="M4030 2190 c0 -5 5 -10 10 -10 6 0 10 5 10 10 0 6 -4 10 -10 10 -5 0
-10 -4 -10 -10z"/>
<path d="M4160 2189 c0 -5 5 -7 10 -4 6 3 10 8 10 11 0 2 -4 4 -10 4 -5 0 -10
-5 -10 -11z"/>
<path d="M4093 2163 c-33 -22 -29 -43 7 -43 25 0 30 4 30 24 0 32 -10 37 -37
19z"/>
<path d="M4001 2134 c0 -11 3 -14 6 -6 3 7 2 16 -1 19 -3 4 -6 -2 -5 -13z"/>
<path d="M4196 2135 c-3 -9 0 -15 9 -15 16 0 20 16 6 24 -5 3 -11 -1 -15 -9z"/>
<path d="M2954 2123 c4 -9 1 -20 -5 -24 -7 -4 -8 -12 -4 -20 6 -9 10 -8 16 7
11 29 10 54 -2 54 -6 0 -8 -7 -5 -17z"/>
<path d="M4163 2080 c0 -25 2 -35 4 -22 2 12 2 32 0 45 -2 12 -4 2 -4 -23z"/>
<path d="M3011 2033 c0 -40 6 -64 17 -77 13 -14 14 -20 5 -23 -7 -3 -13 -14
-13 -24 0 -11 5 -17 10 -14 16 10 12 -21 -5 -35 -9 -8 -15 -30 -15 -56 0 -42
12 -58 23 -31 3 6 6 0 6 -15 1 -31 11 -40 30 -28 11 6 13 32 9 118 -6 120 -11
140 -34 121 -12 -9 -14 -5 -14 25 0 20 2 36 3 36 14 0 47 -41 47 -59 0 -11 5
-21 10 -21 6 0 10 17 10 38 0 44 -17 67 -36 51 -18 -15 -34 -2 -34 27 0 13 -4
24 -9 24 -5 0 -10 -26 -10 -57z"/>
<path d="M2942 2020 c0 -19 2 -27 5 -17 2 9 2 25 0 35 -3 9 -5 1 -5 -18z"/>
<path d="M2975 2030 c3 -5 8 -10 11 -10 2 0 4 5 4 10 0 6 -5 10 -11 10 -5 0
-7 -4 -4 -10z"/>
<path d="M2975 1960 c3 -5 8 -10 11 -10 2 0 4 5 4 10 0 6 -5 10 -11 10 -5 0
-7 -4 -4 -10z"/>
<path d="M2931 1944 c0 -11 3 -14 6 -6 3 7 2 16 -1 19 -3 4 -6 -2 -5 -13z"/>
<path d="M2931 1854 c0 -11 3 -14 6 -6 3 7 2 16 -1 19 -3 4 -6 -2 -5 -13z"/>
<path d="M2970 1835 c1 -26 2 -28 11 -12 8 14 8 22 0 30 -8 8 -11 3 -11 -18z"/>
<path d="M2943 1795 c0 -22 2 -30 4 -17 2 12 2 30 0 40 -3 9 -5 -1 -4 -23z"/>
<path d="M2946 1704 c-3 -8 1 -22 9 -30 13 -14 15 -12 15 15 0 33 -14 42 -24
15z"/>
<path d="M3011 1678 c1 -41 1 -41 8 -12 4 17 11 36 15 42 4 7 1 12 -8 12 -12
0 -16 -10 -15 -42z"/>
<path d="M3028 1583 c-3 -13 -2 -23 3 -23 5 0 9 -18 9 -40 0 -22 -4 -40 -10
-40 -5 0 -10 -18 -10 -40 0 -38 2 -40 30 -40 l31 0 -3 78 c-2 59 -6 77 -18 77
-8 0 -17 11 -20 25 -6 25 -6 25 -12 3z"/>
<path d="M2996 1525 c-17 -13 -17 -15 -2 -31 21 -20 29 -14 24 19 -3 23 -5 24
-22 12z"/>
<path d="M2872 1275 c0 -16 2 -22 5 -12 2 9 2 23 0 30 -3 6 -5 -1 -5 -18z"/>
<path d="M2794 1265 c0 -13 3 -22 7 -19 4 2 20 -9 36 -26 32 -35 43 -37 43
-12 0 17 -44 48 -62 44 -5 -1 -8 4 -8 12 0 8 -4 17 -8 20 -4 2 -8 -6 -8 -19z"/>
<path d="M2715 1180 c-3 -6 1 -7 9 -4 18 7 21 14 7 14 -6 0 -13 -4 -16 -10z"/>
<path d="M2725 1145 c-30 -13 -30 -13 -4 -14 14 -1 31 -7 37 -13 10 -10 14 -8
19 10 5 21 6 21 19 5 7 -10 14 -13 14 -7 0 15 -22 34 -39 34 -9 -1 -29 -7 -46
-15z m45 -5 c0 -5 -4 -10 -10 -10 -5 0 -10 5 -10 10 0 6 5 10 10 10 6 0 10 -4
10 -10z"/>
<path d="M2790 1101 c0 -10 19 -25 25 -20 1 2 -3 10 -11 17 -8 7 -14 8 -14 3z"/>
<path d="M2697 1052 c-15 -3 -16 -7 -6 -18 6 -8 9 -18 5 -21 -4 -4 -11 -1 -16
7 -5 8 -12 11 -15 8 -12 -12 6 -28 31 -28 15 0 24 6 24 15 0 8 6 15 14 15 8 0
17 4 20 9 7 10 -30 19 -57 13z"/>
<path d="M2780 1032 c0 -4 9 -13 20 -20 18 -11 20 -10 20 8 0 13 -7 20 -20 20
-11 0 -20 -3 -20 -8z"/>
<path d="M2740 1003 c-20 -8 -40 -29 -40 -43 0 -6 -5 -8 -12 -4 -7 4 -8 3 -4
-4 4 -6 13 -9 21 -5 9 3 15 -1 15 -11 0 -9 6 -16 13 -16 8 0 7 -3 -3 -10 -18
-11 -5 -25 23 -25 13 0 21 -5 19 -13 -1 -8 3 -12 10 -9 7 2 12 9 11 15 -2 6 4
9 12 6 18 -7 20 7 4 23 -9 9 -7 10 10 6 13 -3 21 -1 21 7 0 9 4 9 13 2 21 -18
39 2 35 39 -2 26 -8 35 -25 37 -17 3 -21 0 -17 -12 3 -9 1 -16 -5 -16 -6 0
-11 5 -11 11 0 5 -4 7 -10 4 -5 -3 -20 1 -32 9 -24 17 -25 17 -48 9z"/>
<path d="M2840 890 c0 -13 -57 -70 -70 -70 -6 0 -10 9 -10 20 0 13 -7 20 -20
20 -11 0 -20 5 -20 12 0 6 -2 9 -5 6 -11 -11 17 -54 49 -76 34 -24 56 -28 56
-12 0 6 -7 10 -15 10 -8 0 -15 5 -15 10 0 6 6 10 14 10 8 0 18 -4 21 -10 8
-12 25 -13 25 -1 0 5 -10 11 -22 14 l-22 6 24 21 c23 20 46 28 36 12 -2 -4 -1
-14 5 -22 7 -13 9 -13 9 0 0 31 -13 60 -26 60 -8 0 -14 -5 -14 -10z"/>
<path d="M3093 865 c-7 -8 -13 -19 -13 -25 0 -15 25 -40 40 -40 15 0 40 25 40
40 0 16 -26 40 -42 40 -7 -1 -19 -7 -25 -15z"/>
<path d="M2826 780 c-35 -16 -36 -19 -17 -25 15 -4 28 1 46 19 30 30 25 31
-29 6z"/>
<path d="M3045 750 c-3 -5 -6 -38 -7 -72 0 -35 -4 -65 -8 -68 -13 -9 -23 -90
-11 -90 6 0 11 -18 11 -40 0 -44 -20 -56 -21 -12 0 15 -3 20 -6 12 -2 -8 -9
-25 -15 -37 -6 -12 -7 -30 -4 -40 7 -16 10 -16 31 9 12 15 25 25 27 23 2 -2 2
11 0 29 -5 42 12 76 38 76 11 0 20 5 20 11 0 7 -7 8 -17 4 -33 -12 -38 -10
-38 20 0 25 4 30 25 30 24 0 25 2 28 78 3 76 3 77 -22 77 -14 0 -28 -4 -31
-10z"/>
<path d="M3628 753 c18 -2 45 -2 60 0 15 2 0 4 -33 4 -33 0 -45 -2 -27 -4z"/>
<path d="M3803 753 c37 -2 97 -2 135 0 37 2 6 3 -68 3 -74 0 -105 -1 -67 -3z"/>
<path d="M4508 753 c17 -2 47 -2 65 0 17 2 3 4 -33 4 -36 0 -50 -2 -32 -4z"/>
<path d="M3803 723 c37 -2 97 -2 135 0 37 2 6 3 -68 3 -74 0 -105 -1 -67 -3z"/>
<path d="M4508 723 c17 -2 47 -2 65 0 17 2 3 4 -33 4 -36 0 -50 -2 -32 -4z"/>
<path d="M2915 710 c-3 -5 -7 -22 -9 -38 -3 -21 0 -28 14 -29 26 -2 34 27 13
44 -10 8 -12 12 -5 8 6 -3 12 -2 12 4 0 15 -18 23 -25 11z"/>
<path d="M4000 700 c0 -6 -73 -10 -196 -10 -108 1 -199 -2 -202 -5 -3 -3 94
-5 216 -5 193 0 221 2 216 15 -7 17 -34 21 -34 5z"/>
<path d="M4508 683 c17 -2 47 -2 65 0 17 2 3 4 -33 4 -36 0 -50 -2 -32 -4z"/>
<path d="M3880 650 l-125 -6 143 -2 c89 -1 142 2 142 8 0 6 -8 9 -17 8 -10 -1
-74 -5 -143 -8z"/>
<path d="M4508 643 c17 -2 47 -2 65 0 17 2 3 4 -33 4 -36 0 -50 -2 -32 -4z"/>
<path d="M4008 613 c7 -3 16 -2 19 1 4 3 -2 6 -13 5 -11 0 -14 -3 -6 -6z"/>
<path d="M2956 543 c2 -31 6 -58 8 -61 3 -2 8 17 11 42 5 34 3 49 -8 60 -13
13 -14 9 -11 -41z"/>
<path d="M4073 560 c0 -25 2 -35 4 -22 2 12 2 32 0 45 -2 12 -4 2 -4 -23z"/>
<path d="M4130 583 c0 -9 -8 -25 -17 -36 -13 -15 -15 -21 -5 -24 20 -8 14 -23
-10 -24 l-23 0 23 -11 c12 -6 22 -15 22 -20 0 -4 9 -8 20 -8 11 0 20 4 20 10
0 5 10 9 23 8 41 -2 57 2 57 12 0 7 -6 7 -20 0 -14 -7 -20 -7 -20 0 0 5 7 11
15 11 28 3 33 4 41 12 4 4 18 7 31 7 13 0 23 5 23 10 0 6 -10 10 -23 10 -13 0
-27 4 -32 9 -6 5 -23 11 -40 13 -22 2 -29 8 -27 21 2 13 -4 17 -28 17 -21 0
-30 -5 -30 -17z m32 -58 c4 -20 3 -23 -8 -14 -16 13 -19 39 -5 39 5 0 11 -11
13 -25z m48 10 c0 -8 -7 -15 -16 -15 -14 0 -14 3 -4 15 7 8 14 15 16 15 2 0 4
-7 4 -15z"/>
<path d="M4220 590 c0 -5 9 -10 19 -10 11 0 23 -5 27 -11 4 -6 21 -9 43 -5
100 15 141 23 148 30 8 8 -43 4 -119 -10 -25 -4 -38 -2 -38 5 0 6 -17 11 -40
11 -22 0 -40 -4 -40 -10z"/>
<path d="M4437 573 c-4 -3 -24 -9 -44 -13 -38 -7 -38 -7 -13 -18 23 -11 22
-11 -11 -6 -20 3 -39 1 -43 -4 -3 -6 1 -9 11 -8 9 2 34 -1 56 -4 26 -5 35 -4
28 3 -7 7 -3 15 12 28 12 9 19 20 16 23 -3 3 -9 3 -12 -1z"/>
<path d="M3440 535 c0 -8 4 -15 10 -15 5 0 7 7 4 15 -4 8 -8 15 -10 15 -2 0
-4 -7 -4 -15z"/>
<path d="M4544 468 c3 -13 6 -26 6 -30 0 -5 12 -8 28 -7 l27 1 -25 8 -25 8 24
1 24 1 -23 20 c-30 26 -44 25 -36 -2z"/>
<path d="M3075 448 c-13 -14 -7 -170 6 -162 6 3 9 39 8 79 -1 39 1 77 5 84 9
14 -6 14 -19 -1z"/>
<path d="M4140 448 c-15 -6 -20 -12 -12 -15 7 -3 20 -2 30 3 29 12 41 13 39 1
-1 -7 4 -11 11 -9 6 1 12 -2 12 -8 0 -5 -11 -10 -25 -10 -28 0 -29 -3 -15 -30
8 -16 15 -17 50 -8 29 8 48 7 66 0 19 -10 24 -9 24 3 0 11 11 15 40 15 37 0
39 1 28 19 -6 11 -24 21 -39 23 -16 3 -26 1 -24 -3 7 -10 -21 -19 -60 -19 -30
0 -52 19 -47 43 3 10 -49 8 -78 -5z"/>
<path d="M4375 450 c-22 -4 -30 -8 -19 -9 12 0 36 -4 53 -7 26 -6 30 -4 25 10
-3 9 -9 15 -13 15 -3 -1 -24 -5 -46 -9z"/>
<path d="M4135 400 c-3 -5 1 -10 9 -10 9 0 16 5 16 10 0 6 -4 10 -9 10 -6 0
-13 -4 -16 -10z"/>
<path d="M4417 404 c-11 -11 3 -24 18 -18 8 4 12 10 9 15 -6 11 -18 12 -27 3z"/>
<path d="M4480 401 c0 -10 68 -20 88 -13 28 10 8 22 -38 22 -27 0 -50 -4 -50
-9z"/>
<path d="M4350 361 c13 -10 13 -11 0 -11 -13 0 -13 -1 0 -10 22 -14 29 -12 26
8 -2 9 -11 18 -22 20 -16 3 -17 1 -4 -7z"/>
<path d="M4168 343 c7 -3 16 -2 19 1 4 3 -2 6 -13 5 -11 0 -14 -3 -6 -6z"/>
<path d="M4425 339 c18 -5 33 -5 39 1 7 7 -4 10 -29 9 -40 -1 -40 -1 -10 -10z"/>
<path d="M4490 341 c0 -6 8 -12 18 -13 29 -3 -278 -20 -364 -20 -45 0 -92 5
-105 11 -20 10 -19 8 6 -13 l30 -26 -70 0 c-38 -1 -90 -5 -114 -9 -25 -5 -55
-5 -68 0 -12 5 -31 5 -40 2 -15 -6 -14 -8 7 -14 l25 -7 -27 -1 c-16 -1 -28 3
-28 7 0 5 -13 7 -30 4 -16 -2 -28 -8 -25 -12 6 -9 -29 -20 -67 -20 -14 0 -29
-6 -31 -13 -3 -7 -6 -5 -6 6 -1 26 -72 26 -119 0 l-27 -15 35 6 c19 3 48 9 64
12 20 5 27 4 22 -5 -4 -6 -21 -11 -37 -11 -17 0 -28 -4 -25 -9 6 -9 -112 -26
-121 -17 -9 9 8 26 28 26 10 0 19 5 19 11 0 7 -9 9 -22 5 -13 -3 -26 -6 -30
-6 -5 0 -8 -9 -8 -20 0 -23 -38 -28 -59 -7 -10 10 -11 9 -6 -5 4 -10 16 -18
28 -18 26 0 19 -7 -13 -14 -62 -13 -155 -42 -158 -48 -2 -5 -21 -8 -43 -8 -21
0 -39 -3 -39 -8 0 -10 -89 -30 -92 -21 -3 8 -31 12 -63 10 -19 -2 -19 -2 -2
-12 15 -9 15 -12 3 -25 -8 -8 -23 -14 -33 -14 -11 0 -28 -7 -39 -16 -18 -14
-14 -15 47 -10 36 3 81 12 100 20 19 8 54 19 79 26 25 7 53 16 62 21 10 5 31
9 47 9 17 0 32 4 35 9 3 5 23 11 43 14 21 2 74 14 117 26 44 11 91 21 106 21
14 0 30 4 35 9 6 5 28 11 50 15 22 3 65 10 95 15 249 45 316 55 495 72 55 5
172 13 260 18 88 5 161 9 163 10 1 0 2 11 2 24 0 18 -6 22 -32 22 -18 0 -43 4
-55 8 -15 5 -23 4 -23 -2z"/>
<path d="M2869 338 c-5 -9 -5 -48 -1 -43 6 6 11 45 5 45 -2 0 -4 -1 -4 -2z"/>
<path d="M4190 324 l-25 -15 30 6 c17 3 38 6 48 6 9 0 15 4 12 10 -9 13 -36
11 -65 -7z"/>
<path d="M2832 295 c0 -16 2 -22 5 -12 2 9 2 23 0 30 -3 6 -5 -1 -5 -18z"/>
<path d="M96 293 c-3 -4 -25 -9 -48 -12 -51 -7 -64 -29 -13 -23 19 2 38 8 41
13 3 5 25 9 50 9 28 0 43 4 39 10 -7 11 -58 14 -69 3z"/>
<path d="M3442 265 c12 -26 32 -33 43 -15 3 6 -3 10 -14 10 -12 0 -21 7 -21
15 0 8 -4 15 -10 15 -6 0 -5 -10 2 -25z"/>
<path d="M3372 264 c-10 -11 -10 -14 2 -14 8 0 21 -3 30 -6 9 -3 16 -1 16 5 0
6 -6 11 -14 11 -8 0 -16 4 -18 9 -1 5 -9 3 -16 -5z"/>
<path d="M3495 270 c3 -5 11 -10 16 -10 6 0 7 5 4 10 -3 6 -11 10 -16 10 -6 0
-7 -4 -4 -10z"/>
<path d="M3610 270 c-8 -5 -12 -11 -9 -14 3 -3 14 1 25 9 21 16 8 20 -16 5z"/>
<path d="M3660 271 c0 -5 7 -11 14 -14 10 -4 13 -1 9 9 -6 15 -23 19 -23 5z"/>
<path d="M3220 239 c0 -5 5 -7 10 -4 18 11 31 -5 20 -26 -14 -25 -36 -24 -50
1 -16 29 -37 24 -45 -11 -8 -35 3 -54 12 -21 6 26 7 26 37 7 29 -19 83 -10 97
16 8 15 6 19 -6 19 -9 0 -23 7 -31 15 -18 17 -44 20 -44 4z"/>
<path d="M3628 243 c7 -3 16 -2 19 1 4 3 -2 6 -13 5 -11 0 -14 -3 -6 -6z"/>
<path d="M3357 213 c-10 -9 -9 -23 1 -23 5 0 9 7 9 15 0 17 -1 18 -10 8z"/>
<path d="M2687 203 c-4 -3 -7 -11 -7 -17 0 -6 5 -5 12 2 6 6 9 14 7 17 -3 3
-9 2 -12 -2z"/>
<path d="M2717 174 c6 -16 19 -18 27 -5 3 5 -3 11 -13 14 -14 3 -18 1 -14 -9z"/>
<path d="M2955 137 c-22 -12 -43 -26 -46 -31 -4 -5 -15 -6 -24 -2 -13 5 -16 2
-11 -9 4 -12 -3 -19 -24 -27 -20 -6 -30 -17 -30 -30 0 -19 1 -19 25 -4 13 9
32 16 42 16 15 0 16 2 3 10 -13 9 -12 12 5 23 42 26 105 29 105 6 0 -5 9 -9
20 -9 11 0 20 5 20 10 0 6 -9 10 -19 10 -21 0 -33 22 -25 45 7 18 9 18 -41 -8z"/>
<path d="M3059 151 c7 -5 10 -14 7 -20 -4 -6 0 -11 8 -11 21 0 21 26 0 34 -23
9 -31 7 -15 -3z"/>
<path d="M3190 150 c0 -5 7 -7 15 -4 8 4 15 8 15 10 0 2 -7 4 -15 4 -8 0 -15
-4 -15 -10z"/>
<path d="M2590 99 c-11 -8 -12 -12 -2 -16 17 -7 15 -43 -2 -43 -7 0 -16 -9
-19 -20 -4 -17 -1 -20 23 -18 32 2 47 26 46 73 -1 32 -21 42 -46 24z"/>
<path d="M2740 100 c0 -5 5 -10 11 -10 5 0 7 5 4 10 -3 6 -8 10 -11 10 -2 0
-4 -4 -4 -10z"/>
<path d="M2800 100 c0 -5 5 -10 11 -10 5 0 7 5 4 10 -3 6 -8 10 -11 10 -2 0
-4 -4 -4 -10z"/>
<path d="M1282 68 c7 -19 38 -22 38 -4 0 10 -9 16 -21 16 -12 0 -19 -5 -17
-12z"/>
<path d="M2760 57 c0 -13 -5 -28 -12 -35 -6 -6 -9 -15 -5 -18 8 -8 46 36 47
52 0 7 -7 14 -15 18 -11 4 -15 -1 -15 -17z"/>
<path d="M2525 50 c3 -5 13 -10 21 -10 8 0 14 5 14 10 0 6 -9 10 -21 10 -11 0
-17 -4 -14 -10z"/>
<path d="M774 35 c-12 -8 -24 -11 -28 -8 -3 3 -6 -1 -6 -10 0 -9 7 -17 15 -17
8 0 15 7 15 15 0 9 9 15 25 15 16 0 25 -6 25 -15 0 -8 7 -15 15 -15 20 0 19
13 -3 33 -23 21 -32 21 -58 2z"/>
<path d="M1260 35 c0 -9 6 -12 15 -9 8 4 15 7 15 9 0 2 -7 5 -15 9 -9 3 -15 0
-15 -9z"/>
<path d="M1420 20 c0 -5 5 -10 10 -10 6 0 10 5 10 10 0 6 -4 10 -10 10 -5 0
-10 -4 -10 -10z"/>
<path d="M2790 10 c0 -5 5 -10 11 -10 5 0 7 5 4 10 -3 6 -8 10 -11 10 -2 0 -4
-4 -4 -10z"/>
<path d="M2363 3 c9 -2 23 -2 30 0 6 3 -1 5 -18 5 -16 0 -22 -2 -12 -5z"/>
</g>
</svg>
